<?xml version="1.0" encoding="utf-8"?>
<!-- Generator: Adobe Illustrator 22.0.1, SVG Export Plug-In . SVG Version: 6.00 Build 0)  -->
<svg version="1.1" baseProfile="basic" xmlns="http://www.w3.org/2000/svg" xmlns:xlink="http://www.w3.org/1999/xlink" x="0px"
	 y="0px" viewBox="0 0 687.6 166.4" xml:space="preserve">
<g id="Layer_1">
	<text id="OG_TExt" transform="matrix(1.0071 0 -0.1383 0.9904 204.6776 76.0023)" display="none"><tspan x="0" y="0" display="inline" fill="#2D2D2D" stroke="#2D2D2D" stroke-miterlimit="10" font-family="'NexaBold'" font-size="70.6795px">STARTERKIT </tspan><tspan x="0" y="70" display="inline" fill="#2D2D2D" stroke="#2D2D2D" stroke-miterlimit="10" font-family="'NexaBold'" font-size="70.6795px">MEDIA</tspan></text>
	<g>
		<path fill="#FFFFFF" stroke="#FFFFFF" stroke-miterlimit="10" d="M249.7,39.6c-1.5,0.7-3.4,0.5-4.6-0.6c-2.1-2-5.6-3.5-9.7-3.5
			c-7.1,0-10.9,2.9-11.4,6.6c-0.6,4.3,4.4,5.6,10.4,6.3c10.4,1.3,19.9,4,18.2,15.9c-1.6,11.1-12.2,15.9-23.5,15.9
			c-8.6,0-15.3-2.2-18.7-8.1c-1.2-2.1-0.3-4.8,1.9-5.8l1.3-0.6c1.8-0.9,4-0.4,5.1,1.3c2.4,3.4,6.9,4.9,11.8,4.9c6,0,12-2.1,12.7-7.5
			c0.7-4.7-4.1-6.6-10.7-7.3c-10.2-1.2-19.4-3.9-17.8-15.1c1.4-10.3,12.3-14.5,21.7-14.5c6,0,12,1.3,15.7,5.3c1.9,2,1.2,5.4-1.3,6.6
			L249.7,39.6z"/>
		<path fill="#FFFFFF" stroke="#FFFFFF" stroke-miterlimit="10" d="M271.7,37.5h-8.3c-2.1,0-3.7-1.8-3.4-3.9l0.2-1.7
			c0.2-1.7,1.7-2.9,3.4-2.9h34.9c2.1,0,3.7,1.8,3.4,3.9l-0.2,1.7c-0.2,1.7-1.7,2.9-3.4,2.9h-10.2c-1.7,0-3.1,1.3-3.4,2.9l-5,35.5
			c-0.2,1.7-1.7,2.9-3.4,2.9h-2.7c-2.1,0-3.7-1.8-3.4-3.9l4.7-33.6C275.3,39.3,273.7,37.5,271.7,37.5z"/>
		<path fill="#FFFFFF" stroke="#FFFFFF" stroke-miterlimit="10" d="M333.3,69.4h-23c-0.9,0-1.8,0.5-2.3,1.3l-4.1,6.8
			c-0.5,0.8-1.4,1.3-2.3,1.3h-4.1c-2.1,0-3.4-2.3-2.3-4.1l26.5-44.5c0.5-0.8,1.4-1.3,2.3-1.3h6.9c1.2,0,2.2,0.8,2.6,1.9l14.1,44.5
			c0.5,1.7-0.7,3.5-2.6,3.5h-4.8c-1.2,0-2.2-0.8-2.6-1.9l-1.8-5.6C335.5,70.2,334.5,69.4,333.3,69.4z M323.1,44.8l-6.9,11.9
			c-1,1.8,0.2,4.1,2.3,4.1H329c1.8,0,3.1-1.7,2.6-3.5L328,45.3C327.3,43.1,324.3,42.7,323.1,44.8z"/>
		<path fill="#FFFFFF" stroke="#FFFFFF" stroke-miterlimit="10" d="M399.5,78.8c-0.2,0-8.4,0-8.4,0c-1.1,0-2.2-0.5-2.9-1.4L378,63.6
			c-0.7-0.9-1.7-1.4-2.9-1.4h-4.3c-1.8,0-3.3,1.3-3.6,3.1l-1.5,10.5c-0.2,1.8-0.7,3.1-2.4,3.1h-4.3c-1.8,0-3-1.9-2.7-4.1l6-42.8
			c0.2-1.8,1.8-3.1,3.6-3.1c7,0,14,0.1,21,0.1c12,0.1,17.2,7.9,16,16.5c-0.8,5.7-3.8,11.5-10.5,14.3c-2.1,0.9-2.8,3.6-1.4,5.5
			c0,0,9.2,12,9.4,12.4C400.7,78.1,400.2,78.8,399.5,78.8z M370.7,40.8l-1.2,8.8c-0.3,2.2,1.4,4.1,3.6,4.1h10.4c6.1,0,9.3-4,9.8-8
			c0.6-4-1.6-8-7.6-8h-11.5C372.4,37.7,370.9,39,370.7,40.8z"/>
		<path fill="#FFFFFF" stroke="#FFFFFF" stroke-miterlimit="10" d="M424,37.5h-11.1c-1.3,0-2.3-1.2-2.2-2.5l0.6-4.2
			c0.2-1.1,1.1-1.9,2.2-1.9h37.4c1.3,0,2.3,1.2,2.2,2.5l-0.6,4.2c-0.2,1.1-1.1,1.9-2.2,1.9H438c-1.1,0-2,0.8-2.2,1.9L430.6,77
			c-0.2,1.1-1.1,1.9-2.2,1.9h-5.2c-1.3,0-2.3-1.2-2.2-2.5l5.1-36.4C426.4,38.7,425.3,37.5,424,37.5z"/>
		<path fill="#FFFFFF" stroke="#FFFFFF" stroke-miterlimit="10" d="M488.9,78.8h-31.1c-2.1,0-3.6-1.8-3.4-3.9c2-14.4,4-28.8,6-43.1
			c0.2-1.7,1.7-2.9,3.4-2.9h31.1c2.1,0,3.6,1.8,3.4,3.9l-0.3,2.3c-0.2,1.7-1.7,2.9-3.4,2.9H472c-1.7,0-3.1,1.2-3.4,2.9l-0.7,4.7
			c-0.3,2,1.3,3.9,3.4,3.9H491c2.1,0,3.6,1.8,3.4,3.9l-0.3,2c-0.2,1.7-1.7,2.9-3.4,2.9h-21.6c-1.7,0-3.1,1.2-3.4,2.9l-0.6,4.5
			c-0.3,2,1.3,3.9,3.4,3.9h20.7c2.1,0,3.6,1.8,3.4,3.9l-0.3,2.5C492,77.6,490.5,78.8,488.9,78.8z"/>
		<path fill="#FFFFFF" stroke="#FFFFFF" stroke-miterlimit="10" d="M599.2,30.2c-0.3,0.3-21.7,21-21.7,21c-1.2,1.1-1.3,2.9-0.3,4.1
			c0,0,17.7,21.2,18.4,22.1c0.5,0.7,0.2,1.5-0.9,1.5c-0.6,0-8.9,0-8.9,0c-0.9,0-1.7-0.4-2.3-1.1l-13-15.8c-1.6-2-4.9-1.1-5.3,1.5
			l-1.8,12.8c-0.2,1.5-1.5,2.6-2.9,2.6h-3.6c-1.8,0-3.2-1.6-2.9-3.4l6.1-44c0.2-1.5,1.5-2.6,2.9-2.6h3.6c1.8,0,3.2,1.6,2.9,3.4
			l-1.3,9.3c-0.4,2.8,3,4.5,5,2.6l15.2-14.4c0.6-0.5,1.3-0.8,2.1-0.8c0,0,7.2,0,8.1,0C599.7,28.9,599.7,29.8,599.2,30.2z"/>
		<path fill="#FFFFFF" stroke="#FFFFFF" stroke-miterlimit="10" d="M603.5,74.9l6-43c0.2-1.7,1.4-3,3.1-3h3.6c2.3,0,3,1.9,2.7,3.9
			l-6,43c-0.2,1.7-1.1,3-2.8,3h-4C603.9,78.8,603.2,77,603.5,74.9z"/>
		<path fill="#FFFFFF" stroke="#FFFFFF" stroke-miterlimit="10" d="M640,37.5h-9.4c-1.8,0-3.1-1.6-2.9-3.3l0.4-2.7
			c0.2-1.4,1.4-2.5,2.9-2.5h35.9c1.8,0,3.1,1.6,2.9,3.3l-0.4,2.7c-0.2,1.4-1.4,2.5-2.9,2.5h-11c-1.5,0-2.7,1.1-2.9,2.5l-5.1,36.3
			c-0.2,1.4-1.4,2.5-2.9,2.5H641c-1.8,0-3.1-1.6-2.9-3.3l4.8-34.7C643.2,39.1,641.8,37.5,640,37.5z"/>
		<path fill="#FFFFFF" stroke="#FFFFFF" stroke-miterlimit="10" d="M245.4,115.3l-14.9,16.5c-0.4,0.4-0.9,0.6-1.4,0.6l0,0
			c-0.7,0-1.3-0.3-1.6-0.9l-9.9-16.3c-0.9-1.5-3.2-1-3.4,0.7l-4.1,29.5c-0.1,0.9-0.9,1.6-1.9,1.6h-5.8c-1.1,0-2-1-1.9-2.1l6.4-46.2
			c0.1-0.9,0.9-1.6,1.9-1.6h8.3c0.7,0,1.3,0.3,1.6,0.9l11,18.4c0.7,1.1,2.2,1.2,3,0.3l16.6-18.9c0.4-0.4,0.9-0.6,1.4-0.6h8
			c1.1,0,2,1,1.9,2.1l-6.4,46.2c-0.1,0.9-0.9,1.6-1.9,1.6h-5.8c-1.1,0-2-1-1.9-2.1l3.9-28.1C248.9,114.9,246.6,113.9,245.4,115.3z"
			/>
		<path fill="#FFFFFF" stroke="#FFFFFF" stroke-miterlimit="10" d="M358.9,121.6c-1.5,12.6-11.2,25.4-28.9,25.4h-15.2
			c-2.5,0-4.4-2.2-4.1-4.7l5.8-41.7c0.3-2,2-3.5,4.1-3.5H337C354.4,97,360.4,109.2,358.9,121.6z M321.5,133.2
			c-0.3,2.5,1.6,4.7,4.1,4.7h5.7c11.5,0,17.2-8.3,18.2-16.4c0.9-7.8-2.7-15.5-13.7-15.5h-6.9c-2.1,0-3.8,1.5-4.1,3.5L321.5,133.2z"
			/>
		<path fill="#FFFFFF" stroke="#FFFFFF" stroke-miterlimit="10" d="M362.8,143.2l6-43.3c0.2-1.6,1.6-2.8,3.3-2.8h2.8
			c2,0,3.6,1.8,3.3,3.8l-6,43.3c-0.2,1.6-1.6,2.8-3.3,2.8H366C364,147,362.5,145.2,362.8,143.2z"/>
		<path fill="#FFFFFF" stroke="#FFFFFF" stroke-miterlimit="10" d="M420.7,137.5h-24.5c-0.5,0-1,0.3-1.3,0.7l-4.8,7.9
			c-0.3,0.5-0.8,0.7-1.3,0.7H382c-1.2,0-1.9-1.3-1.3-2.3l27.9-46.8c0.3-0.5,0.8-0.8,1.3-0.8h8.4c0.7,0,1.3,0.4,1.5,1.1l14.8,46.8
			c0.3,1-0.4,2-1.5,2H426c-0.7,0-1.3-0.4-1.5-1.1l-2.3-7.3C422,138,421.4,137.5,420.7,137.5z M411,110.6l-9.3,15.9
			c-0.6,1,0.1,2.3,1.3,2.3h14.1c1,0,1.8-1,1.5-2l-4.8-15.9C413.4,109.6,411.7,109.4,411,110.6z"/>
		<path fill="#FFFFFF" stroke="#FFFFFF" stroke-miterlimit="10" d="M299.4,147h-31.1c-2.1,0-3.6-1.8-3.4-3.9c2-14.4,4-28.8,6-43.1
			c0.2-1.7,1.7-2.9,3.4-2.9h31.1c2.1,0,3.6,1.8,3.4,3.9l-0.3,2.3c-0.2,1.7-1.7,2.9-3.4,2.9h-22.6c-1.7,0-3.1,1.2-3.4,2.9l-0.7,4.7
			c-0.3,2,1.3,3.9,3.4,3.9h19.7c2.1,0,3.6,1.8,3.4,3.9l-0.3,2c-0.2,1.7-1.7,2.9-3.4,2.9h-21.6c-1.7,0-3.1,1.2-3.4,2.9l-0.6,4.5
			c-0.3,2,1.3,3.9,3.4,3.9h20.7c2.1,0,3.6,1.8,3.4,3.9l-0.3,2.5C302.5,145.7,301.1,147,299.4,147z"/>
		<path fill="#FFFFFF" stroke="#FFFFFF" stroke-miterlimit="10" d="M544.7,78.8c-0.2,0-8.6,0-8.6,0c-1.1,0-2.2-0.5-2.9-1.4L523,63.6
			c-0.7-0.9-1.7-1.4-2.9-1.4h-4.3c-1.8,0-3.3,1.3-3.6,3.1l-1.5,10.5c-0.2,1.8-0.7,3.1-2.4,3.1h-4.3c-1.8,0-3-1.9-2.7-4.1l6-42.8
			c0.2-1.8,1.8-3.1,3.6-3.1c7,0,14,0.1,21,0.1c12,0.1,17.2,7.9,16,16.5c-0.8,5.7-3.8,11.5-10.5,14.3c-2.1,0.9-2.8,3.6-1.4,5.5
			c0,0,9.4,12.3,9.7,12.6C546,78.4,545.4,78.8,544.7,78.8z M515.7,40.8l-1.2,8.8c-0.3,2.2,1.4,4.1,3.6,4.1h10.4c6.1,0,9.3-4,9.8-8
			c0.6-4-1.6-8-7.6-8h-11.5C517.4,37.7,515.9,39,515.7,40.8z"/>
	</g>
</g>
<g id="Lion_v2" display="none">
	<g id="Lion_V2_1_" display="inline">
		<g>
			<defs>
				<rect id="SVGID_1_" x="56.3" y="10.2" width="128" height="149.4"/>
			</defs>
			<clipPath id="SVGID_2_">
				<use xlink:href="#SVGID_1_"  overflow="visible"/>
			</clipPath>
			<g clip-path="url(#SVGID_2_)">
				<defs>
					<rect id="SVGID_3_" x="56.3" y="10.2" width="128" height="149.4"/>
				</defs>
				<clipPath id="SVGID_4_">
					<use xlink:href="#SVGID_3_"  overflow="visible"/>
				</clipPath>
				<path clip-path="url(#SVGID_4_)" fill="#0B324F" d="M111.4,109.9c-0.3,0,1-2.4,0.8-6.2c-0.1-2.8-1.3-4-1.7-5.7
					c-1.3,1.4-6.9,4.1-7.3,5.8c-0.5,2.2,1,4.4,1.6,6.8c-0.6,3-3.8,6.3-8.2,8.9c-5.9,3.5-9.8,4.9-11.6,4.8c-3.1-0.1-9.1-5.7-10.1-8.7
					c0.9-3-3.2-1.8-7.1-4.3c-4.8-3-3.1-7.5-8.1-6.7c-4.3-2.3-3.8-6.7-2.1-9.9c4.1-7.9,8.1-15.9,12.1-23.9c0.2-0.4,0.5-1.1,0.3-1.5
					c-2.6-4.6,0.4-8,2.4-11.4c1.9-3.3,2.8-6.5,1.7-10.3c-2-6.7,0.4-11.5,5.5-16.3c6.7-6.2,14-8.7,16-9.3c10.1-3.1,32-5.5,41.7,4.4
					C159.7,49,138.4,109.3,111.4,109.9"/>
				<path clip-path="url(#SVGID_4_)" fill="#FFFFFF" d="M103.2,111c-2.3,3.9-9.8,9.6-17.5,11.9c-3.5-1.7-7.6-4.5-8.6-7.5
					c-0.1-0.6,3.9-3.7,7.3-5.9c5.2,2,6.9,1.5,9.9-1.8c1.9-2.1,0.6-3.9-2.1-4.6c-3.7-0.9-7.6,1.2-10.3,4.6c-4.2,5.4-9.1,5.5-13.2,2.4
					c-2.1-1.6-3.9-4.2-3-7c1.3-4.5,5-8.6,3.4-9.3c-1.4-0.6-4.4,0.2-7,3.7c0.2,0.9,0.6,1.8,1.5,2.3c-1,2.4-1.3,2.7-3.2,4.1
					c-2.6-1.8-3.3-4.8-1.1-8.6c4.4-7.6,8.2-15.6,12.2-23.4c0.3-0.7,0.8-1.7,0.5-2.1c-2.9-4.5,0.5-7.5,2.5-10.8
					c3.9-6.5,6.4-8.2,13.6-6.5c2.7,0.6,4.8,3.7,4.4,6.2c-0.8,5.6,0.8,5.6,6.1,7.4c3.6,1.2,8.5,3,8.5,3s-2.1,2.9-4.9,4.3
					c8.6,4.1,6.7,13,7.8,21c0.4,2.7-1.7,4.2-5.6,6.2C100.3,102.7,101.1,106.3,103.2,111"/>
				<path clip-path="url(#SVGID_4_)" fill="#0B324F" d="M80.1,89.4c-0.4-1.3,1.2-2.3,2.2-1.3c1.6,1.6,4.5,3.2,9.1,2.5
					c7.5-1.2,11,2.5,11.5,4.4c-1.1-1.5-2.2-2.5-3.8-2.9c-3.7-0.9-7.4,0.4-9.5,0.8C85.4,93.6,81.4,93.7,80.1,89.4
					C80.1,89.4,80.1,89.4,80.1,89.4"/>
				<path clip-path="url(#SVGID_4_)" fill="#0B324F" d="M76.8,68.5c-3,2.5-0.3,6.9-1.2,8.2c2.8-2.1,12.3-8.7,12.2-10.1
					c0-0.6-1.6-0.7-2.4-0.6C83,66.3,78.3,67.3,76.8,68.5"/>
				<path clip-path="url(#SVGID_4_)" fill="#0B324F" d="M76.2,43.1c0,0,15.8-35.6,58.2-32.7c0,0-2.9-0.5-13.8,4.3
					c0,0,15-6.3,38,12.2c0,0-5.3-2.5-14.7,0c0,0,14.7,0.2,26.6,15.8c8.4,11,8,11.5,9.9,28.4c0,0-0.6-4.3-8.8-6.7
					c0,0,10.1,4.7,8.1,16.6c0,0-3.2-6.4-8.2-8.6c0,0,6,5.7,8.2,14.2c2.1,8.5-4.3,6.4-3.5,12.1c0.7,5.7,13.5,9.9,0,26.3
					c0,0,0.7-13-4.3-12.1c-3.5,0.7-2.8,3.5-3.5,7.8c-0.7,4.3-1.1,5.7-13.5,12.8c0,0,13.5-14.9,3.5-19.9c-7.1-3.5-12.8,5.7-9.9,12.1
					c2.8,6.4,2.1,14.2-6.4,22c0,0,2.5-18.4-10.6-22c0,0-3,3-3.5,10.6c-0.7,9.2,4.3,9.9,11.4,18.5c0,0-32.6-13.5-24.8-25.5
					c0,0-12.1,7.8-1.4,25.5c-17-2.1-31.2-9.9-11.4-32.6c21.1-24.1,19.9-47.5,0-71.7L76.2,43.1z"/>
				<path clip-path="url(#SVGID_4_)" fill="#F20A79" d="M87.8,38.7c0,0,5.8-11.7,21.6-16.3c0,0,12.8-1.9,22.6,1
					c0,0,10.2,2.4,15.8,10.5c0,0-15.7-2.2-22.3,2.3c0,0,13.4-0.3,21.5,3.8c0,0-7.4-1.9-11.5-0.6c0,0,23.7,4.9,31.1,15.5
					c0,0-23.9-2.4-9.6,6.5c14.3,8.9,14.4,12.6,14.8,16.7c0.4,4.1,2.1,11.4,2.1,11.4s-5.1-13.9-9.2-14.3c0,0,3.8,5.4,2.1,12.1
					c-1.4,5.7,2.1,10.6,2.1,10.6s-6.8-2.8-6.6-10.2c0,0,1-4.2-3-9.2c0,0,3.7,18-4.5,24.4c0,0,5.5-10.8,1.2-18.7
					c0,0-0.3,19.5-12.5,27.2c0,0,9-14.1,7.1-22.9c0,0-2.9,10.1-7.4,15.9c0,0-0.3,3.3,0.3-5.8c0,0-1,7.4-7.3,11.6
					c0,0-0.4,1.2,2.3-6.1c0,0-2.8,5.5-10.8,10.3c0,0,2-0.1,5.2-7.7c0,0-9.7,12.8-15.5,16c-7.8,4.3-14.9,8.5-13.5,22.7
					c-14.2-5,0.9-24.2,7.8-29.8c0,0,2.7-3,4.3-9.9c0,0,0.4,7.7-0.7,10.6c0,0,2.8-2.6,3.5-10c0,0,2.4,2.5,2.4,4.9
					c0,0,2.3-6.1,0.9-14.2c0,0,4.7,5.9,3.5,11.6c0,0,4.1-6-1.2-18.4c0,0-5.4-1.3-9.3-12.6c-0.7-2-3-7.9,1.9-16.2
					c0,0-0.1,0.5-4.5-0.4c0,0,2.2-1.3,2.9-4.8c0,0-3.9,3-7.1,1.3c0,0,1.5,2.3,4.5-3.4c0,0-9.6-4-12.5-5.2
					C99.9,49,101.8,34.5,87.8,38.7"/>
			</g>
		</g>
	</g>
</g>
<g id="Lion_v1" display="none">
	<g id="Artwork_1_1_" display="inline">
		<g>
			<path fill="#0B324F" d="M215.1,24.8c0,0-4.3,5.8-10.4,9.8c2.3,0.8,4.4,1.7,6.5,2.3C214.5,31.1,215.1,24.8,215.1,24.8z"/>
			<path fill="#0B324F" d="M161.3,42.1c2.8,2.2,6.7-3.8,12.5-6.6c0.4-0.2,0.7-0.3,1.1-0.5c-1-0.4-2.1-0.8-3.1-1.2
				c-2.7,1.4-5.8,2.3-9.3,2.5C158.5,36.5,159,40.3,161.3,42.1z"/>
			<path fill="#0B324F" d="M118.8,126.9c0,0,12.7,5.9,18.6-1c4.2-4.9,4.3-8.3,11.5-9.5c-25.5-4.4-26.3-17-26.3-17s16,15.5,23.7,3.9
				c7-10.7-8.3-16.1-5-24.5c3.3-8.2,8.9-9.8,14.9-6.8c-11.2-17.2-29.6-10.2-37.8,8c-0.4-20.9,14.1-25.3,14.1-25.3
				s-11.7-4.6-23.4-0.6c0.8-2.1,3.6-7,9.8-10c4.9-2.4,8.7-3.4,8.7-3.4s-3.3-2.9-9.1-3.9c-7-1.1-16,1.2-16,1.2s1.1-1.6,2.9-3.6
				c-8.5,3.3-17.1,7.9-25.5,14c-6.4,4.6-9.6,9.7-8.4,17.3c0.7,4.4-0.7,7.8-3.3,11.1c-2.7,3.5-6.5,6.9-4.3,12.3
				c0.2,0.4-0.2,1.1-0.5,1.6c-5.5,8.3-11,16.6-16.7,24.8c-2.3,3.4-3.4,8.1,1,11.2c5.6-0.2,3.1,4.6,8,8.5c4,3.3,8.7,2.5,7.2,5.7
				c0.7,3.4,6.5,10.5,10,11c1.9,0.3,6.5-0.7,13.4-3.8c5.2-2.3,9.2-5.6,10.2-8.7c-0.3-2.7-1.7-5.4-0.9-7.7c0.7-1.8,7.2-4,8.9-5.4
				c4.3,2.5,1.2,4.5-0.4,8.1c-5.1,11.1,14.3,12.9,22.2,8.4c-11-0.8-11.5-9-7.3-11.1c0.1,4.5,4.8,6,11.7,6.8
				C123.9,133.3,118.8,126.9,118.8,126.9z M105,122.6c0,3-2.5,4.4-7,6c-4.6,1.7-4.2,5.8-2.6,11.3c-3.1,4-12.2,9.2-21,10.7
				c-3.7-2.3-7.8-6-8.5-9.5c0-0.7,4.8-3.6,8.8-5.5c5.5,2.9,7.4,2.6,11.1-0.6c2.4-2.1,1.2-4.3-1.7-5.3c-4-1.5-8.6,0.2-12,3.7
				c-5.4,5.4-10.8,4.8-14.9,0.9c-2.1-2-3.7-5.1-2.4-8.1c2.1-4.8,6.7-8.8,5-9.8c-1.5-0.9-4.8-0.3-8.3,3.1c0.1,1,0.4,2,1.4,2.7
				c-1.5,2.5-1.8,2.8-4.1,4.1c-2.6-2.4-3-5.8,0-9.7c5.9-7.8,11.2-16.1,16.6-24.2c0.5-0.7,1.1-1.8,0.9-2.3c-2.6-5.4,1.6-8.2,4.2-11.6
				c5.2-6.6,8.2-8.2,15.9-5.3c2.9,1.1,4.7,4.7,4,7.5c-1.7,6.1,0.1,6.3,5.7,9c3.8,1.8,9,4.5,9,4.5s-2.7,2.9-6,4.1
				C108.2,104,104.9,113.6,105,122.6z M101.6,75.9c-2.6,1.7-4.5-0.1-5-1.5c5-2.3,10.3-8,4.4-15.4c-9.4-1.5-12.3,1.3-14.2,8.5
				c-2.1-0.1-3.9-2.8-1.7-6.2c2.6-4,9.3-7.3,18.3-6.7C107.1,60.4,108.8,71.1,101.6,75.9z"/>
			<path fill="#0B324F" d="M188.6,133.8c1.4,0.4,3,1.2,4.8,2.4c18.5,11.9,25.2-0.3,22.6-9.9c-1.6,5.7-6.1,13.2-18-1.4c0,0,0,0,0,0
				C195.7,127.8,192.5,131.4,188.6,133.8z"/>
			<path fill="#0B324F" d="M191.3,103.3c-10.4,2.6-17.5-3.8-22.6-8c3.8,12.8,10.8,18.9,17.5,21.7c2.8-1.3,7.5-2.9,12.5-2
				c24.8,4.8,18.4-16.6,18.4-16.6s-2,18.2-16.1-1.3C198.6,99.8,195.8,102.2,191.3,103.3z"/>
			<path fill="#0B324F" d="M171.8,134.5c-6.3-3.5-10.2,2.5-14.6,6.6c5.5,1.1,10.8,2.8,15.4,5.7c12.3,7.9,22.4,7.9,22.5-6
				c-4.7,7.4-14.3,4.2-15.3-0.6c-0.1-0.3,0.1-2,0.9-3.6C177.9,136.8,174.9,136.2,171.8,134.5z"/>
			<path fill="#0B324F" d="M187.2,60.6c-10.3-1.7-13.7,0.4-15,6.6c-1.1,5.4,4.5,13.2,10.1,10.1c4.7-2.6,9.2-4.3,13.4-5.1
				c0.4-0.3,0.9-0.5,1.4-0.8c11.2-7.2,29.2-0.7,29.2-0.7s-10.5-7.3-21-12.1C199,60.9,192.7,61.5,187.2,60.6z"/>
			<path fill="#FFFFFF" d="M99.3,98.3c3.3-1.2,6-4.1,6-4.1s-5.2-2.6-9-4.5c-5.6-2.7-7.4-3-5.7-9c0.8-2.8-1.1-6.4-4-7.5
				c-7.7-2.8-10.7-1.3-15.9,5.3c-2.6,3.4-6.8,6.2-4.2,11.6c0.2,0.5-0.4,1.6-0.9,2.3c-5.5,8.1-10.7,16.4-16.6,24.2
				c-3,3.9-2.6,7.3,0,9.7c2.3-1.3,2.6-1.5,4.1-4.1c-0.9-0.7-1.2-1.7-1.4-2.7c3.4-3.4,6.8-4,8.3-3.1c1.7,1-2.9,5-5,9.8
				c-1.3,3,0.3,6.1,2.4,8.1c4.1,3.9,9.5,4.6,14.9-0.9c3.4-3.4,7.9-5.2,12-3.7c2.8,1,4,3.2,1.7,5.3c-3.7,3.3-5.7,3.6-11.1,0.6
				c-4,1.9-8.8,4.8-8.8,5.5c0.7,3.5,4.8,7.1,8.5,9.5c8.8-1.5,17.9-6.7,21-10.7c-1.7-5.5-2-9.6,2.6-11.3c4.5-1.7,7-3,7-6
				C104.9,113.6,108.2,104,99.3,98.3z M69.7,98.3c1.2-1.4-1.1-6.6,2.5-8.9c1.7-1.1,7.2-1.6,9.8-1.5c0.9,0,2.6,0.3,2.6,1
				C84.5,90.4,73.2,96.4,69.7,98.3z M94,116.9c-4-1.5-8.2-0.6-10.6-0.4c-4.6,0.3-9-0.1-9.9-5c0,0,0-0.1,0-0.1
				c-0.2-1.5,1.7-2.3,2.6-1.2c1.6,2,4.5,4.1,9.7,3.9c8.5-0.3,11.8,4.2,12,6.4C96.7,118.9,95.7,117.6,94,116.9z"/>
			<path fill="#FFFFFF" d="M85.1,61.4c-2.2,3.3-0.4,6.1,1.7,6.2c1.9-7.3,4.8-10,14.2-8.5c5.8,7.4,0.6,13.1-4.4,15.4
				c0.5,1.3,2.4,3.2,5,1.5c7.2-4.8,5.5-15.5,1.9-21.2C94.4,54.1,87.7,57.4,85.1,61.4z"/>
			<path fill="#0B324F" d="M84.6,88.8c0-0.6-1.7-1-2.6-1c-2.7,0-8.1,0.4-9.8,1.5c-3.6,2.4-1.3,7.5-2.5,8.9
				C73.2,96.4,84.5,90.4,84.6,88.8z"/>
			<path fill="#0B324F" d="M85.7,114.2c-5.2,0.2-8.1-1.9-9.7-3.9c-0.9-1.2-2.9-0.3-2.6,1.2c0,0,0,0.1,0,0.1c0.9,4.8,5.3,5.3,9.9,5
				c2.4-0.2,6.6-1.1,10.6,0.4c1.7,0.6,2.8,1.9,3.8,3.7C97.5,118.5,94.2,113.9,85.7,114.2z"/>
			<path fill="#F20A79" d="M232.4,29.5c-7.5,10.5-13.8,10-21.3,7.5c-2.1-0.7-4.2-1.5-6.5-2.3c-7.8-2.8-17.1-5.2-29.8,0.4
				c-0.4,0.2-0.7,0.3-1.1,0.5c-5.8,2.7-9.7,8.7-12.5,6.6c-2.3-1.7-2.8-5.6,1.2-5.8c3.5-0.2,6.6-1.1,9.3-2.5
				C183.2,28,187.6,14,187.6,14s-5.7,13.4-41.2,9.7c-10.6-1.1-19.4,0.1-30,3.4c-4.7,1.5-8.5,4.8-11,7.4c-1.9,2-2.9,3.6-2.9,3.6
				s9-2.3,16-1.2c5.8,0.9,9.1,3.9,9.1,3.9s-3.8,1-8.7,3.4c-6.2,3-9.1,7.9-9.8,10c11.7-4.1,23.4,0.6,23.4,0.6s-14.5,4.3-14.1,25.3
				c8.2-18.2,26.6-25.2,37.8-8c-6-3-11.7-1.3-14.9,6.8c-3.3,8.4,12,13.7,5,24.5c-7.7,11.6-23.7-3.9-23.7-3.9s0.8,12.6,26.3,17
				c-7.2,1.2-7.3,4.6-11.5,9.5c-5.9,6.9-18.6,1-18.6,1s5.1,6.4,12.1,11.6c6.7,5,15.1,8.9,22.5,5.4c1.4-0.6,2.6-1.7,3.8-2.8
				c4.4-4.2,8.3-10.1,14.6-6.6c3.1,1.7,6.1,2.3,8.9,2.1c2.8-0.2,5.5-1.3,7.9-2.7c3.9-2.4,7.1-6,9.4-9c2.4-3.2,3.8-5.8,3.8-5.8
				s-7.4,1.5-15.6-2c-6.6-2.8-13.6-8.9-17.5-21.7c5.1,4.1,12.2,10.5,22.6,8c4.5-1.1,7.4-3.4,9.6-6.1c6.1-7.2,8-17.1,25.4-13.4
				c-6.6-8.2-17.1-14.1-30.6-11.5c-4.2,0.8-8.6,2.4-13.4,5.1c-5.6,3.1-11.2-4.8-10.1-10.1c1.3-6.2,4.7-8.4,15-6.6
				c5.5,0.9,11.8,0.3,18-1.9C217,54.6,228.3,44.8,232.4,29.5z"/>
		</g>
	</g>
</g>
<g id="Layer_4">
	<g>
		<path fill="#00D01A" d="M43.5,147.2H24.7c-1.2,0-2-1-1.9-2.1l0.6-4.7c0.1-1.2,1.2-2.1,2.4-2.1h18.7c1.2,0,2,1,1.9,2.1l-0.6,4.7
			C45.7,146.3,44.6,147.2,43.5,147.2z"/>
		<path fill="#00D01A" d="M45.2,133.2H26.4c-1.2,0-2-1-1.9-2.1l0.6-4.7c0.1-1.2,1.2-2.1,2.4-2.1h18.7c1.2,0,2,1,1.9,2.1l-0.6,4.7
			C47.4,132.3,46.4,133.2,45.2,133.2z"/>
		<path fill="#00D01A" d="M46.9,119.2H28.2c-1.2,0-2-1-1.9-2.1l0.6-4.7c0.1-1.2,1.2-2.1,2.4-2.1H48c1.2,0,2,1,1.9,2.1l-0.6,4.7
			C49.2,118.3,48.1,119.2,46.9,119.2z"/>
		<path fill="#00D01A" d="M48.7,105.2H29.9c-1.2,0-2-1-1.9-2.1l0.6-4.7c0.1-1.2,1.2-2.1,2.4-2.1h18.7c1.2,0,2,1,1.9,2.1l-0.6,4.7
			C50.9,104.3,49.8,105.2,48.7,105.2z"/>
		<path fill="#F7CE03" d="M50.4,91.2H31.7c-1.2,0-2-1-1.9-2.1l0.6-4.7c0.1-1.2,1.2-2.1,2.4-2.1h18.7c1.2,0,2,1,1.9,2.1l-0.6,4.7
			C52.6,90.3,51.6,91.2,50.4,91.2z"/>
		<path fill="#F7CE03" d="M52,78.2H33.3c-1.2,0-2-1-1.9-2.1l0.6-4.7c0.1-1.2,1.2-2.1,2.4-2.1h18.7c1.2,0,2,1,1.9,2.1l-0.6,4.7
			C54.3,77.3,53.2,78.2,52,78.2z"/>
		<path fill="#F7CE03" d="M53.7,64.2H35c-1.2,0-2-1-1.9-2.1l0.6-4.7c0.1-1.2,1.2-2.1,2.4-2.1h18.7c1.2,0,2,1,1.9,2.1l-0.6,4.7
			C56,63.3,54.9,64.2,53.7,64.2z"/>
		<path fill="#F20A79" d="M55.5,50.2H36.7c-1.2,0-2-1-1.9-2.1l0.6-4.7c0.1-1.2,1.2-2.1,2.4-2.1h18.7c1.2,0,2,1,1.9,2.1l-0.6,4.7
			C57.7,49.3,56.7,50.2,55.5,50.2z"/>
		<path fill="#F20A79" d="M57.1,37.2H38.3c-1.2,0-2-1-1.9-2.1l0.6-4.7c0.1-1.2,1.2-2.1,2.4-2.1h18.7c1.2,0,2,1,1.9,2.1l-0.6,4.7
			C59.3,36.3,58.3,37.2,57.1,37.2z"/>
		<path fill="#00D01A" d="M75.5,147.2H56.7c-1.2,0-2-1-1.9-2.1l0.6-4.7c0.1-1.2,1.2-2.1,2.4-2.1h18.7c1.2,0,2,1,1.9,2.1l-0.6,4.7
			C77.7,146.3,76.6,147.2,75.5,147.2z"/>
		<path fill="#00D01A" d="M77.2,133.2H58.4c-1.2,0-2-1-1.9-2.1l0.6-4.7c0.1-1.2,1.2-2.1,2.4-2.1h18.7c1.2,0,2,1,1.9,2.1l-0.6,4.7
			C79.4,132.3,78.4,133.2,77.2,133.2z"/>
		<path fill="#00D01A" d="M78.9,119.2H60.2c-1.2,0-2-1-1.9-2.1l0.6-4.7c0.1-1.2,1.2-2.1,2.4-2.1H80c1.2,0,2,1,1.9,2.1l-0.6,4.7
			C81.2,118.3,80.1,119.2,78.9,119.2z"/>
		<path fill="#00D01A" d="M80.7,105.2H61.9c-1.2,0-2-1-1.9-2.1l0.6-4.7c0.1-1.2,1.2-2.1,2.4-2.1h18.7c1.2,0,2,1,1.9,2.1l-0.6,4.7
			C82.9,104.3,81.8,105.2,80.7,105.2z"/>
		<path fill="#F7CE03" d="M82.4,91.2H63.7c-1.2,0-2-1-1.9-2.1l0.6-4.7c0.1-1.2,1.2-2.1,2.4-2.1h18.7c1.2,0,2,1,1.9,2.1l-0.6,4.7
			C84.6,90.3,83.6,91.2,82.4,91.2z"/>
		<path fill="#F7CE03" d="M84,78.2H65.3c-1.2,0-2-1-1.9-2.1l0.6-4.7c0.1-1.2,1.2-2.1,2.4-2.1h18.7c1.2,0,2,1,1.9,2.1l-0.6,4.7
			C86.3,77.3,85.2,78.2,84,78.2z"/>
		<path fill="#00D01A" d="M107.5,147.2H88.7c-1.2,0-2-1-1.9-2.1l0.6-4.7c0.1-1.2,1.2-2.1,2.4-2.1h18.7c1.2,0,2,1,1.9,2.1l-0.6,4.7
			C109.7,146.3,108.6,147.2,107.5,147.2z"/>
		<path fill="#00D01A" d="M109.2,133.2H90.4c-1.2,0-2-1-1.9-2.1l0.6-4.7c0.1-1.2,1.2-2.1,2.4-2.1h18.7c1.2,0,2,1,1.9,2.1l-0.6,4.7
			C111.4,132.3,110.4,133.2,109.2,133.2z"/>
		<path fill="#00D01A" d="M110.9,119.2H92.2c-1.2,0-2-1-1.9-2.1l0.6-4.7c0.1-1.2,1.2-2.1,2.4-2.1H112c1.2,0,2,1,1.9,2.1l-0.6,4.7
			C113.2,118.3,112.1,119.2,110.9,119.2z"/>
		<path fill="#00D01A" d="M112.7,105.2H93.9c-1.2,0-2-1-1.9-2.1l0.6-4.7c0.1-1.2,1.2-2.1,2.4-2.1h18.7c1.2,0,2,1,1.9,2.1l-0.6,4.7
			C114.9,104.3,113.8,105.2,112.7,105.2z"/>
		<path fill="#00D01A" d="M139.5,147.2h-18.7c-1.2,0-2-1-1.9-2.1l0.6-4.7c0.1-1.2,1.2-2.1,2.4-2.1h18.7c1.2,0,2,1,1.9,2.1l-0.6,4.7
			C141.7,146.3,140.6,147.2,139.5,147.2z"/>
		<path fill="#00D01A" d="M141.2,133.2h-18.7c-1.2,0-2-1-1.9-2.1l0.6-4.7c0.1-1.2,1.2-2.1,2.4-2.1h18.7c1.2,0,2,1,1.9,2.1l-0.6,4.7
			C143.4,132.3,142.4,133.2,141.2,133.2z"/>
		<path fill="#00D01A" d="M142.9,119.2h-18.7c-1.2,0-2-1-1.9-2.1l0.6-4.7c0.1-1.2,1.2-2.1,2.4-2.1H144c1.2,0,2,1,1.9,2.1l-0.6,4.7
			C145.2,118.3,144.1,119.2,142.9,119.2z"/>
		<path fill="#00D01A" d="M144.7,105.2h-18.7c-1.2,0-2-1-1.9-2.1l0.6-4.7c0.1-1.2,1.2-2.1,2.4-2.1h18.7c1.2,0,2,1,1.9,2.1l-0.6,4.7
			C146.9,104.3,145.8,105.2,144.7,105.2z"/>
		<path fill="#F7CE03" d="M146.4,91.2h-18.7c-1.2,0-2-1-1.9-2.1l0.6-4.7c0.1-1.2,1.2-2.1,2.4-2.1h18.7c1.2,0,2,1,1.9,2.1l-0.6,4.7
			C148.6,90.3,147.6,91.2,146.4,91.2z"/>
		<path fill="#F7CE03" d="M148,78.2h-18.7c-1.2,0-2-1-1.9-2.1l0.6-4.7c0.1-1.2,1.2-2.1,2.4-2.1h18.7c1.2,0,2,1,1.9,2.1l-0.6,4.7
			C150.3,77.3,149.2,78.2,148,78.2z"/>
		<path fill="#00D01A" d="M171.5,147.2h-18.7c-1.2,0-2-1-1.9-2.1l0.6-4.7c0.1-1.2,1.2-2.1,2.4-2.1h18.7c1.2,0,2,1,1.9,2.1l-0.6,4.7
			C173.7,146.3,172.6,147.2,171.5,147.2z"/>
		<path fill="#00D01A" d="M173.2,133.2h-18.7c-1.2,0-2-1-1.9-2.1l0.6-4.7c0.1-1.2,1.2-2.1,2.4-2.1h18.7c1.2,0,2,1,1.9,2.1l-0.6,4.7
			C175.4,132.3,174.4,133.2,173.2,133.2z"/>
		<path fill="#00D01A" d="M174.9,119.2h-18.7c-1.2,0-2-1-1.9-2.1l0.6-4.7c0.1-1.2,1.2-2.1,2.4-2.1H176c1.2,0,2,1,1.9,2.1l-0.6,4.7
			C177.2,118.3,176.1,119.2,174.9,119.2z"/>
		<path fill="#00D01A" d="M176.7,105.2h-18.7c-1.2,0-2-1-1.9-2.1l0.6-4.7c0.1-1.2,1.2-2.1,2.4-2.1h18.7c1.2,0,2,1,1.9,2.1l-0.6,4.7
			C178.9,104.3,177.8,105.2,176.7,105.2z"/>
		<path fill="#F7CE03" d="M178.4,91.2h-18.7c-1.2,0-2-1-1.9-2.1l0.6-4.7c0.1-1.2,1.2-2.1,2.4-2.1h18.7c1.2,0,2,1,1.9,2.1l-0.6,4.7
			C180.6,90.3,179.6,91.2,178.4,91.2z"/>
		<path fill="#F7CE03" d="M180,78.2h-18.7c-1.2,0-2-1-1.9-2.1l0.6-4.7c0.1-1.2,1.2-2.1,2.4-2.1h18.7c1.2,0,2,1,1.9,2.1l-0.6,4.7
			C182.3,77.3,181.2,78.2,180,78.2z"/>
		<path fill="#F7CE03" d="M181.7,64.2H163c-1.2,0-2-1-1.9-2.1l0.6-4.7c0.1-1.2,1.2-2.1,2.4-2.1h18.7c1.2,0,2,1,1.9,2.1l-0.6,4.7
			C184,63.3,182.9,64.2,181.7,64.2z"/>
		<path fill="#F20A79" d="M183.5,50.2h-18.7c-1.2,0-2-1-1.9-2.1l0.6-4.7c0.1-1.2,1.2-2.1,2.4-2.1h18.7c1.2,0,2,1,1.9,2.1l-0.6,4.7
			C185.7,49.3,184.7,50.2,183.5,50.2z"/>
		<path fill="#F20A79" d="M185.1,37.2h-18.7c-1.2,0-2-1-1.9-2.1l0.6-4.7c0.1-1.2,1.2-2.1,2.4-2.1h18.7c1.2,0,2,1,1.9,2.1l-0.6,4.7
			C187.3,36.3,186.3,37.2,185.1,37.2z"/>
	</g>
</g>
</svg>
