<?xml version="1.0" encoding="utf-8"?>
<!-- Generator: Adobe Illustrator 22.0.1, SVG Export Plug-In . SVG Version: 6.00 Build 0)  -->
<svg version="1.1" baseProfile="basic" xmlns="http://www.w3.org/2000/svg" xmlns:xlink="http://www.w3.org/1999/xlink" x="0px"
	 y="0px" viewBox="0 0 164.8 166.4" xml:space="preserve">
<g id="Layer_1" display="none">
	<text id="OG_TExt" transform="matrix(1.0071 0 -0.1383 0.9904 163.8448 76.0023)"><tspan x="0" y="0" display="inline" fill="#2D2D2D" stroke="#2D2D2D" stroke-miterlimit="10" font-family="'NexaBold'" font-size="70.6795px">STARTERKIT </tspan><tspan x="0" y="70" display="inline" fill="#2D2D2D" stroke="#2D2D2D" stroke-miterlimit="10" font-family="'NexaBold'" font-size="70.6795px">MEDIA</tspan></text>
	<g id="Artwork_1_2_" display="inline">
		<g>
			<defs>
				<rect id="SVGID_1_" x="-0.9" y="17.6" width="167.9" height="138.7"/>
			</defs>
			<clipPath id="SVGID_2_">
				<use xlink:href="#SVGID_1_"  overflow="visible"/>
			</clipPath>
			<g clip-path="url(#SVGID_2_)">
				<defs>
					<rect id="SVGID_3_" x="-0.9" y="17.6" width="167.9" height="138.7"/>
				</defs>
				<clipPath id="SVGID_4_">
					<use xlink:href="#SVGID_3_"  overflow="visible"/>
				</clipPath>
				<path clip-path="url(#SVGID_4_)" fill="#0B324F" d="M145.7,37.5c0,0-1.2,12.7-10.5,16.8c-13.8,6-35-0.9-36.6,5.6
					c-3.8,15.4,4-1.9,29.6,2c10.1,1.5,26.5,12.9,26.5,12.9s-14.6-5.3-23.7,0.5c-9.4,6-17.1,6-17.1,6s8.7-1.7,19.8,14.1
					c12,17,13.6,1.8,13.6,1.8s5.3,17.4-14.9,13.5c-6.4-1.3-12.3,2.8-12.3,2.8s7.5-0.3,11.8,5.1c9.7,11.9,13.3,5.7,14.6,1.1
					c2.2,7.8-3.3,17.7-18.3,8c-10-6.4-11.2,2.5-11,3.2c0.8,3.9,8.6,6.5,12.4,0.5c0,11.3-8.3,11.2-18.2,4.9
					c-15.7-10.1-43.1-2.3-43.3-12.2c-3.4,1.8-3.1,8.4,5.9,9c-6.4,3.6-22.1,2.2-18-6.8c1.3-2.9,3.8-4.5,0.3-6.6
					c-1.3,1.1-6.7,2.9-7.2,4.3c-0.7,1.9,0.4,4.1,0.7,6.2c-0.9,2.6-4.1,5.2-8.3,7.1c-5.6,2.5-9.3,3.3-10.9,3.1
					c-2.8-0.4-7.5-6.1-8.1-8.9c1.2-2.6-2.6-1.9-5.9-4.6c-4-3.2-2-7.1-6.5-6.9c-3.6-2.5-2.7-6.4-0.8-9.1c4.6-6.6,9-13.4,13.5-20.1
					c0.2-0.4,0.6-1,0.4-1.3c-1.8-4.4,1.3-7.1,3.5-10c2.1-2.7,3.2-5.5,2.6-9c-1-6.2,1.6-10.3,6.8-14c20.7-15,42.2-18.7,61.6-16
					c10,1.4,18.7,9,31.8,7.7C138.4,47.6,145.7,37.5,145.7,37.5"/>
				<path clip-path="url(#SVGID_4_)" fill="#FFFFFF" d="M48.9,130.9c-2.5,3.3-9.9,7.5-17,8.7c-3-1.9-6.3-4.9-6.9-7.7
					c0-0.6,3.9-2.9,7.2-4.4c4.4,2.4,6,2.1,9-0.5c1.9-1.7,0.9-3.5-1.3-4.3c-3.2-1.2-6.9,0.2-9.7,3c-4.3,4.4-8.7,3.9-12.1,0.7
					c-1.7-1.7-3-4.2-2-6.6c1.7-3.9,5.4-7.1,4-8c-1.2-0.7-3.9-0.3-6.7,2.5c0.1,0.8,0.4,1.6,1.1,2.2c-1.2,2.1-1.5,2.2-3.3,3.3
					c-2.1-1.9-2.4-4.7,0-7.9c4.8-6.3,9-13.1,13.5-19.6c0.4-0.5,0.9-1.4,0.7-1.8c-2.1-4.4,1.3-6.7,3.4-9.4c4.2-5.4,6.6-6.6,12.9-4.3
					c2.3,0.9,3.9,3.8,3.2,6.1c-1.4,4.9,0.1,5.1,4.6,7.3c3.1,1.5,7.3,3.6,7.3,3.6s-2.2,2.3-4.9,3.4c7.2,4.6,4.5,12.4,4.6,19.7
					c0,2.5-2,3.5-5.7,4.9C47.2,123.1,47.5,126.4,48.9,130.9"/>
				<path clip-path="url(#SVGID_4_)" fill="#FFFFFF" d="M53.8,79c-2.1,1.4-3.7-0.1-4-1.2c4.1-1.9,8.3-6.5,3.6-12.5
					c-7.6-1.2-10,1-11.5,6.9c-1.7,0-3.2-2.3-1.4-5c2.1-3.2,7.5-5.9,14.9-5.4C58.2,66.4,59.6,75,53.8,79"/>
				<path clip-path="url(#SVGID_4_)" fill="#0B324F" d="M30,89.9c-2.9,1.9-1,6.1-2,7.2c2.8-1.6,12-6.4,12-7.7c0-0.5-1.4-0.8-2.1-0.8
					C35.8,88.6,31.4,89,30,89.9"/>
				<path clip-path="url(#SVGID_4_)" fill="#0B324F" d="M31,107.8c-0.2-1.2,1.4-1.9,2.1-0.9c1.3,1.6,3.6,3.3,7.8,3.2
					c6.9-0.2,9.6,3.4,9.8,5.2c-0.8-1.5-1.7-2.5-3.1-3c-3.2-1.2-6.6-0.5-8.6-0.3C35.3,112.2,31.7,111.8,31,107.8
					C31,107.8,31,107.8,31,107.8"/>
				<path clip-path="url(#SVGID_4_)" fill="#F20A79" d="M95.9,134.1c5.1-2.4,8.4-11.2,14.9-7.7c13.8,7.6,24.2-12.5,24.2-12.5
					s-19.9,3.9-26.8-19.2c4.1,3.3,9.9,8.5,18.3,6.5c13.4-3.4,9-19.9,28.4-15.8c-7-8.7-19.5-14.3-35.7-5.2c-4.5,2.5-9.1-3.9-8.2-8.2
					c1.1-5,3.8-6.8,12.2-5.4c13,2.2,31.5-6.3,36.6-25.2c-13.6,19.1-22.7-6.8-47.5,4.9c-4.7,2.2-7.8,7.1-10.1,5.3
					c-1.9-1.4-2.3-4.5,1-4.7c14.9-0.7,20.3-18.1,20.3-18.1s-4.6,10.9-33.4,7.9c-8.6-0.9-15.7,0.1-24.3,2.8
					c-6.7,2.1-11.3,8.9-11.3,8.9s7.3-1.8,13-0.9c4.7,0.8,7.4,3.1,7.4,3.1s-3.1,0.8-7.1,2.7c-5,2.5-7.3,6.4-8,8.1
					c9.5-3.3,19,0.5,19,0.5S67,65.4,67.4,82.3C74,67.6,88.9,61.9,98,75.8c-4.9-2.4-9.5-1.1-12.1,5.5c-2.7,6.8,9.8,11.1,4.1,19.8
					c-6.2,9.4-19.2-3.1-19.2-3.1s0.7,10.2,21.4,13.8c-5.9,1-5.9,3.8-9.3,7.7c-4.8,5.6-15.1,0.8-15.1,0.8S83.5,140,95.9,134.1"/>
			</g>
		</g>
	</g>
</g>
<g id="Layer_3">
</g>
<g id="Layer_2">
	<g id="Artwork_4_1_">
		<g>
			<defs>
				<rect id="SVGID_5_" x="3.1" y="27.2" width="158" height="113.8"/>
			</defs>
			<clipPath id="SVGID_6_">
				<use xlink:href="#SVGID_5_"  overflow="visible"/>
			</clipPath>
			<g clip-path="url(#SVGID_6_)">
				<defs>
					<rect id="SVGID_7_" x="3.1" y="27.2" width="158" height="113.8"/>
				</defs>
				<clipPath id="SVGID_8_">
					<use xlink:href="#SVGID_7_"  overflow="visible"/>
				</clipPath>
				<path clip-path="url(#SVGID_8_)" fill="#00D01A" d="M22.8,141H4.9c-1.1,0-1.9-0.9-1.8-2l0.6-4.5c0.1-1.1,1.2-2,2.3-2h17.9
					c1.1,0,1.9,0.9,1.8,2l-0.6,4.5C25,140.1,24,141,22.8,141"/>
				<path clip-path="url(#SVGID_8_)" fill="#00D01A" d="M24.5,127.6H6.6c-1.1,0-1.9-0.9-1.8-2l0.6-4.5c0.1-1.1,1.2-2,2.3-2h17.9
					c1.1,0,1.9,0.9,1.8,2l-0.6,4.5C26.7,126.7,25.6,127.6,24.5,127.6"/>
				<path clip-path="url(#SVGID_8_)" fill="#00D01A" d="M26.2,114.3H8.2c-1.1,0-1.9-0.9-1.8-2l0.6-4.5c0.1-1.1,1.2-2,2.3-2h17.9
					c1.1,0,1.9,0.9,1.8,2l-0.6,4.5C28.3,113.3,27.3,114.3,26.2,114.3"/>
				<path clip-path="url(#SVGID_8_)" fill="#00D01A" d="M27.8,100.9H9.9c-1.1,0-1.9-0.9-1.8-2l0.6-4.5c0.1-1.1,1.2-2,2.3-2h17.9
					c1.1,0,1.9,0.9,1.8,2l-0.6,4.5C30,100,28.9,100.9,27.8,100.9"/>
				<path clip-path="url(#SVGID_8_)" fill="#F7CE03" d="M29.5,87.5H11.6c-1.1,0-1.9-0.9-1.8-2l0.6-4.5c0.1-1.1,1.2-2,2.3-2h17.9
					c1.1,0,1.9,0.9,1.8,2l-0.6,4.5C31.6,86.6,30.6,87.5,29.5,87.5"/>
				<path clip-path="url(#SVGID_8_)" fill="#F7CE03" d="M31,75.1H13.1c-1.1,0-1.9-0.9-1.8-2l0.6-4.5c0.1-1.1,1.2-2,2.3-2h17.9
					c1.1,0,1.9,0.9,1.8,2L33.3,73C33.2,74.1,32.1,75.1,31,75.1"/>
				<path clip-path="url(#SVGID_8_)" fill="#F7CE03" d="M32.7,61.7H14.8c-1.1,0-1.9-0.9-1.8-2l0.6-4.5c0.1-1.1,1.2-2,2.3-2h17.9
					c1.1,0,1.9,0.9,1.8,2L35,59.6C34.8,60.8,33.8,61.7,32.7,61.7"/>
				<path clip-path="url(#SVGID_8_)" fill="#F20A79" d="M34.3,48.3H16.4c-1.1,0-1.9-0.9-1.8-2l0.6-4.5c0.1-1.1,1.2-2,2.3-2h17.9
					c1.1,0,1.9,0.9,1.8,2l-0.6,4.5C36.5,47.4,35.5,48.3,34.3,48.3"/>
				<path clip-path="url(#SVGID_8_)" fill="#F20A79" d="M35.9,35.9H18c-1.1,0-1.9-0.9-1.8-2l0.6-4.5c0.1-1.1,1.2-2,2.3-2h17.9
					c1.1,0,1.9,0.9,1.8,2l-0.6,4.5C38,34.9,37,35.9,35.9,35.9"/>
				<path clip-path="url(#SVGID_8_)" fill="#00D01A" d="M53.4,141H35.5c-1.1,0-1.9-0.9-1.8-2l0.6-4.5c0.1-1.1,1.2-2,2.3-2h17.9
					c1.1,0,1.9,0.9,1.8,2l-0.6,4.5C55.6,140.1,54.6,141,53.4,141"/>
				<path clip-path="url(#SVGID_8_)" fill="#00D01A" d="M55.1,127.6H37.2c-1.1,0-1.9-0.9-1.8-2l0.6-4.5c0.1-1.1,1.2-2,2.3-2h17.9
					c1.1,0,1.9,0.9,1.8,2l-0.6,4.5C57.2,126.7,56.2,127.6,55.1,127.6"/>
				<path clip-path="url(#SVGID_8_)" fill="#00D01A" d="M56.8,114.3H38.8c-1.1,0-1.9-0.9-1.8-2l0.6-4.5c0.1-1.1,1.2-2,2.3-2h17.9
					c1.1,0,1.9,0.9,1.8,2l-0.6,4.5C58.9,113.3,57.9,114.3,56.8,114.3"/>
				<path clip-path="url(#SVGID_8_)" fill="#00D01A" d="M58.4,100.9H40.5c-1.1,0-1.9-0.9-1.8-2l0.6-4.5c0.1-1.1,1.2-2,2.3-2h17.9
					c1.1,0,1.9,0.9,1.8,2l-0.6,4.5C60.6,100,59.5,100.9,58.4,100.9"/>
				<path clip-path="url(#SVGID_8_)" fill="#F7CE03" d="M60.1,87.5H42.2c-1.1,0-1.9-0.9-1.8-2l0.6-4.5c0.1-1.1,1.2-2,2.3-2h17.9
					c1.1,0,1.9,0.9,1.8,2l-0.6,4.5C62.2,86.6,61.2,87.5,60.1,87.5"/>
				<path clip-path="url(#SVGID_8_)" fill="#F7CE03" d="M61.6,75.1H43.7c-1.1,0-1.9-0.9-1.8-2l0.6-4.5c0.1-1.1,1.2-2,2.3-2h17.9
					c1.1,0,1.9,0.9,1.8,2L63.9,73C63.8,74.1,62.7,75.1,61.6,75.1"/>
				<path clip-path="url(#SVGID_8_)" fill="#00D01A" d="M84,141H66.1c-1.1,0-1.9-0.9-1.8-2l0.6-4.5c0.1-1.1,1.2-2,2.3-2h17.9
					c1.1,0,1.9,0.9,1.8,2l-0.6,4.5C86.2,140.1,85.2,141,84,141"/>
				<path clip-path="url(#SVGID_8_)" fill="#00D01A" d="M85.7,127.6H67.8c-1.1,0-1.9-0.9-1.8-2l0.6-4.5c0.1-1.1,1.2-2,2.3-2h17.9
					c1.1,0,1.9,0.9,1.8,2l-0.6,4.5C87.8,126.7,86.8,127.6,85.7,127.6"/>
				<path clip-path="url(#SVGID_8_)" fill="#00D01A" d="M87.4,114.3H69.4c-1.1,0-1.9-0.9-1.8-2l0.6-4.5c0.1-1.1,1.2-2,2.3-2h17.9
					c1.1,0,1.9,0.9,1.8,2l-0.6,4.5C89.5,113.3,88.5,114.3,87.4,114.3"/>
				<path clip-path="url(#SVGID_8_)" fill="#00D01A" d="M89,100.9H71.1c-1.1,0-1.9-0.9-1.8-2l0.6-4.5c0.1-1.1,1.2-2,2.3-2h17.9
					c1.1,0,1.9,0.9,1.8,2l-0.6,4.5C91.2,100,90.1,100.9,89,100.9"/>
				<path clip-path="url(#SVGID_8_)" fill="#00D01A" d="M114.6,141H96.7c-1.1,0-1.9-0.9-1.8-2l0.6-4.5c0.1-1.1,1.2-2,2.3-2h17.9
					c1.1,0,1.9,0.9,1.8,2l-0.6,4.5C116.8,140.1,115.8,141,114.6,141"/>
				<path clip-path="url(#SVGID_8_)" fill="#00D01A" d="M116.3,127.6H98.4c-1.1,0-1.9-0.9-1.8-2l0.6-4.5c0.1-1.1,1.2-2,2.3-2h17.9
					c1.1,0,1.9,0.9,1.8,2l-0.6,4.5C118.4,126.7,117.4,127.6,116.3,127.6"/>
				<path clip-path="url(#SVGID_8_)" fill="#00D01A" d="M117.9,114.3H100c-1.1,0-1.9-0.9-1.8-2l0.6-4.5c0.1-1.1,1.2-2,2.3-2H119
					c1.1,0,1.9,0.9,1.8,2l-0.6,4.5C120.1,113.3,119.1,114.3,117.9,114.3"/>
				<path clip-path="url(#SVGID_8_)" fill="#00D01A" d="M119.6,100.9h-17.9c-1.1,0-1.9-0.9-1.8-2l0.6-4.5c0.1-1.1,1.2-2,2.3-2h17.9
					c1.1,0,1.9,0.9,1.8,2l-0.6,4.5C121.8,100,120.7,100.9,119.6,100.9"/>
				<path clip-path="url(#SVGID_8_)" fill="#F7CE03" d="M121.3,87.5h-17.9c-1.1,0-1.9-0.9-1.8-2l0.6-4.5c0.1-1.1,1.2-2,2.3-2h17.9
					c1.1,0,1.9,0.9,1.8,2l-0.6,4.5C123.4,86.6,122.4,87.5,121.3,87.5"/>
				<path clip-path="url(#SVGID_8_)" fill="#F7CE03" d="M122.8,75.1h-17.9c-1.1,0-1.9-0.9-1.8-2l0.6-4.5c0.1-1.1,1.2-2,2.3-2h17.9
					c1.1,0,1.9,0.9,1.8,2l-0.6,4.5C125,74.1,123.9,75.1,122.8,75.1"/>
				<path clip-path="url(#SVGID_8_)" fill="#00D01A" d="M145.2,141h-17.9c-1.1,0-1.9-0.9-1.8-2l0.6-4.5c0.1-1.1,1.2-2,2.3-2h17.9
					c1.1,0,1.9,0.9,1.8,2l-0.6,4.5C147.4,140.1,146.3,141,145.2,141"/>
				<path clip-path="url(#SVGID_8_)" fill="#00D01A" d="M146.9,127.6H129c-1.1,0-1.9-0.9-1.8-2l0.6-4.5c0.1-1.1,1.2-2,2.3-2h17.9
					c1.1,0,1.9,0.9,1.8,2l-0.6,4.5C149,126.7,148,127.6,146.9,127.6"/>
				<path clip-path="url(#SVGID_8_)" fill="#00D01A" d="M148.5,114.3h-17.9c-1.1,0-1.9-0.9-1.8-2l0.6-4.5c0.1-1.1,1.2-2,2.3-2h17.9
					c1.1,0,1.9,0.9,1.8,2l-0.6,4.5C150.7,113.3,149.7,114.3,148.5,114.3"/>
				<path clip-path="url(#SVGID_8_)" fill="#00D01A" d="M150.2,100.9h-17.9c-1.1,0-1.9-0.9-1.8-2l0.6-4.5c0.1-1.1,1.2-2,2.3-2h17.9
					c1.1,0,1.9,0.9,1.8,2l-0.6,4.5C152.3,100,151.3,100.9,150.2,100.9"/>
				<path clip-path="url(#SVGID_8_)" fill="#F7CE03" d="M151.9,87.5h-17.9c-1.1,0-1.9-0.9-1.8-2l0.6-4.5c0.1-1.1,1.2-2,2.3-2h17.9
					c1.1,0,1.9,0.9,1.8,2l-0.6,4.5C154,86.6,153,87.5,151.9,87.5"/>
				<path clip-path="url(#SVGID_8_)" fill="#F7CE03" d="M153.4,75.1h-17.9c-1.1,0-1.9-0.9-1.8-2l0.6-4.5c0.1-1.1,1.2-2,2.3-2h17.9
					c1.1,0,1.9,0.9,1.8,2l-0.6,4.5C155.5,74.1,154.5,75.1,153.4,75.1"/>
				<path clip-path="url(#SVGID_8_)" fill="#F7CE03" d="M155.1,61.7h-17.9c-1.1,0-1.9-0.9-1.8-2l0.6-4.5c0.1-1.1,1.2-2,2.3-2h17.9
					c1.1,0,1.9,0.9,1.8,2l-0.6,4.5C157.2,60.8,156.2,61.7,155.1,61.7"/>
				<path clip-path="url(#SVGID_8_)" fill="#F20A79" d="M156.7,48.3h-17.9c-1.1,0-1.9-0.9-1.8-2l0.6-4.5c0.1-1.1,1.2-2,2.3-2h17.9
					c1.1,0,1.9,0.9,1.8,2l-0.6,4.5C158.9,47.4,157.8,48.3,156.7,48.3"/>
				<path clip-path="url(#SVGID_8_)" fill="#F20A79" d="M158.3,35.9h-17.9c-1.1,0-1.9-0.9-1.8-2l0.6-4.5c0.1-1.1,1.2-2,2.3-2h17.9
					c1.1,0,1.9,0.9,1.8,2l-0.6,4.5C160.4,34.9,159.4,35.9,158.3,35.9"/>
			</g>
		</g>
	</g>
</g>
</svg>
