<?xml version="1.0" encoding="utf-8"?>
<!-- Generator: Adobe Illustrator 22.0.1, SVG Export Plug-In . SVG Version: 6.00 Build 0)  -->
<svg version="1.1" baseProfile="basic" xmlns="http://www.w3.org/2000/svg" xmlns:xlink="http://www.w3.org/1999/xlink" x="0px"
	 y="0px" viewBox="0 0 164.8 166.4" xml:space="preserve">
<g id="Layer_1">
	<text id="OG_TExt" transform="matrix(1.0071 0 -0.1383 0.9904 163.8448 76.0023)" display="none"><tspan x="0" y="0" display="inline" fill="#2D2D2D" stroke="#2D2D2D" stroke-miterlimit="10" font-family="'NexaBold'" font-size="70.6795px">STARTERKIT </tspan><tspan x="0" y="70" display="inline" fill="#2D2D2D" stroke="#2D2D2D" stroke-miterlimit="10" font-family="'NexaBold'" font-size="70.6795px">MEDIA</tspan></text>
	<g id="Artwork_1_2_">
		<g>
			<defs>
				<rect id="SVGID_1_" x="11" y="19.3" width="144.1" height="135.4"/>
			</defs>
			<clipPath id="SVGID_2_">
				<use xlink:href="#SVGID_1_"  overflow="visible"/>
			</clipPath>
			<g clip-path="url(#SVGID_2_)">
				<defs>
					<rect id="SVGID_3_" x="11" y="19.3" width="144.1" height="135.4"/>
				</defs>
				<clipPath id="SVGID_4_">
					<use xlink:href="#SVGID_3_"  overflow="visible"/>
				</clipPath>
				<path clip-path="url(#SVGID_4_)" fill="#2D2D2D" d="M114.1,29.3c-18-1.6-15.8,8.4-15.8,8.4s14.5-2.2,21.7,3.2
					c10.5,7.9,9.1,13.7,9.1,13.7s-14.6,2.8-16.8,6.9c9.4,9.7,16.1,16.2,16.1,16.2s-10.6,1.3-15.9,6.1c11.7,10.3,13.5,7,7.7,21.1
					c-9.8,23.7,3.3,24.6,3.3,24.6s2.3,12.4-12.4,13.3c-15.3,1-22-1.6-33.6-9.2c-2.1,2.8-3.4,8.5-0.5,11.2
					c-7.7,0.1-13.4-1.7-14.1-6.8c-0.8-5.6,0.6-8.4,3.3-13.4c1.9-3.4,0.2-9.6-0.9-11.8c-1.3,1.4-6.8,4-7.2,5.7
					c-0.5,2.1,1,4.4,1.6,6.7c-0.6,2.9-3.8,6.2-8.1,8.8c-5.8,3.5-9.7,4.8-11.4,4.8c-3.1-0.1-9-5.7-10-8.6c0.9-3-3.1-1.8-7-4.2
					c-4.7-3-3.1-7.4-8-6.7c-4.3-2.3-3.8-6.6-2.1-9.8c4.1-7.8,8-15.7,12-23.6c0.2-0.4,0.5-1.1,0.3-1.4c-2.6-4.5,0.4-7.9,2.4-11.3
					c1.9-3.3,2.8-6.4,1.7-10.2c-2-6.6,0.4-11.4,5.5-16.1c17.4-16.1,31.3-24,52.8-23.7C100.5,23.5,108.8,25.5,114.1,29.3"/>
				<path clip-path="url(#SVGID_4_)" fill="#FFFFFF" d="M57.7,125.3c-2.3,3.9-9.7,9.4-17.3,11.7c-3.5-1.7-7.5-4.4-8.5-7.4
					c-0.1-0.6,3.9-3.7,7.2-5.8c5.1,2,6.8,1.5,9.7-1.8c1.9-2.1,0.6-3.9-2-4.5c-3.7-0.9-7.5,1.1-10.1,4.5c-4.1,5.4-9,5.4-13,2.4
					c-2.1-1.6-3.8-4.1-3-6.9c1.3-4.4,5-8.4,3.3-9.2c-1.4-0.6-4.3,0.2-6.9,3.6c0.2,0.9,0.6,1.7,1.5,2.3c-1,2.4-1.3,2.6-3.2,4
					c-2.5-1.8-3.3-4.8-1.1-8.5c4.4-7.5,8.1-15.4,12-23.1c0.3-0.6,0.8-1.7,0.5-2.1c-2.9-4.4,0.5-7.4,2.4-10.7
					c3.8-6.4,6.3-8.1,13.4-6.4c2.6,0.6,4.7,3.6,4.3,6.1c-0.8,5.5,0.8,5.5,6,7.3c3.6,1.2,8.4,3,8.4,3s-2.1,2.8-4.8,4.3
					c8.5,4.1,6.6,12.9,7.7,20.7c0.4,2.7-1.7,4.1-5.5,6.1C54.8,117.1,55.6,120.7,57.7,125.3"/>
				<path clip-path="url(#SVGID_4_)" fill="#FFFFFF" d="M56,68.3c-2.1,1.8-4.2,1.1-4.2,1.1s7-10.2,1.4-14.8c-8.4-0.3-11.8,8-11.8,8
					s-3.1-1.6-1.5-4.8c1.8-3.8,7.4-7.9,15.4-8.4C59.2,54.1,61.9,63.3,56,68.3"/>
				<path clip-path="url(#SVGID_4_)" fill="#2D2D2D" d="M36,96.9c0,0,3.3,6.6,11.8,5.3c7.5-1.2,10.7,3.3,10.2,5.1
					c-1.1-1.5-2.2-2.5-3.7-2.9c-3.7-0.9-7.3,0.4-9.4,0.8c-4,0.8-8,0.8-9.3-3.3C34.7,98.9,36,96.9,36,96.9"/>
				<path clip-path="url(#SVGID_4_)" fill="#F20A79" d="M121.6,110.1c-7,11.4,11.8,11.1,10-6.1c14.2,3.7,10.3,33.8-17.4,38.2
					c-16.7,2.6-24.7,0.5-34.7-12.2c11.6,1.5,15.9,6.7,27-0.5c-11.2,0.2-20.4-8-26.9-17c8.5,4.1,10.5,2.5,15.4,1.1
					c8.4-2.2,11.9,1.2,12,7.5c3.3-9.9,9.4-23.3-11.6-21.5c-5,0.4-12.7-2.6-16.3-9.5c9.9,4,14.7,1.1,19.6-1.7
					c9.7-5.8,15.5,4.6,15.5,4.6s-1.7-20.3-17.8-19.3c-8.5,0.5-7.8-5.5-15.6-10.9c12,2.6,18.1,2.3,23.8-1.1
					c9.7-5.8,4.7-14.8,4.7-14.8s-5.4,12.7-14.6,5.2c-5.8-4.7-8.5-6.9-20.4-5.9c12.5-5.8,6.1-13.4,20.8-15.1
					c-9.1-4.2-25.8,2.5-25.8,2.5s4.1-2.8,11-5.8c9.2-3.9,33.9-5.4,40.4,7.5c-8.6-5.5-21.9,1.6-21.9,1.6s8.9-1.5,19.1,1.2
					c18.8,5.1,25.5,19.6,17.1,33.3c1.8-7.7-1-17-16.7-9.3c3.3,0.2,9.5,7.7,11.7,12.6c5.5,12.8,12,12.8,11.3,3.5
					c3.8,10.5-2,15.4-11.6,9.8c-7.5-4.4-11.4-2.6-11.4-2.6S131.3,94.2,121.6,110.1"/>
				<path clip-path="url(#SVGID_4_)" fill="#2D2D2D" d="M31.7,83.4c-2.9,2.5-0.3,6.8-1.2,8.1c2.8-2.1,12.1-8.6,12.1-10
					c0-0.6-1.6-0.7-2.4-0.6C37.8,81.2,33.1,82.2,31.7,83.4"/>
			</g>
		</g>
	</g>
</g>
<g id="Layer_2">
</g>
</svg>
