<?xml version="1.0" encoding="utf-8"?>
<!-- Generator: Adobe Illustrator 22.0.1, SVG Export Plug-In . SVG Version: 6.00 Build 0)  -->
<svg version="1.1" baseProfile="basic" xmlns="http://www.w3.org/2000/svg" xmlns:xlink="http://www.w3.org/1999/xlink" x="0px"
	 y="0px" viewBox="0 0 639.8 166.4" xml:space="preserve">
<g id="Layer_1">
	<text id="OG_TExt" transform="matrix(1.0071 0 -0.1383 0.9904 168.8448 76.0023)" display="none"><tspan x="0" y="0" display="inline" fill="#2D2D2D" stroke="#2D2D2D" stroke-miterlimit="10" font-family="'NexaBold'" font-size="70.6795px">STARTERKIT </tspan><tspan x="0" y="70" display="inline" fill="#2D2D2D" stroke="#2D2D2D" stroke-miterlimit="10" font-family="'NexaBold'" font-size="70.6795px">MEDIA</tspan></text>
	<g id="Text">
		<path fill="#FFFFFF" stroke="#FFFFFF" stroke-miterlimit="10" d="M208.3,38.8c-1.3-2.8-5.6-5.5-11.1-5.5c-7,0-10.7,2.9-11.2,6.5
			c-0.6,4.3,4.4,5.5,10.2,6.2c10.2,1.3,19.5,3.9,17.9,15.6c-1.5,10.9-12,15.6-23.1,15.6c-10.2,0-17.6-3.1-20-12l8.4-4
			c1.5,5.4,6.9,7.8,12.9,7.8c5.9,0,11.7-2,12.5-7.4c0.6-4.6-4-6.5-10.5-7.2c-10-1.2-19-3.9-17.5-14.8c1.4-10.1,12.1-14.2,21.3-14.3
			c7.8,0,15.5,2.2,18.2,9.7L208.3,38.8z"/>
		<path fill="#FFFFFF" stroke="#FFFFFF" stroke-miterlimit="10" d="M236.7,35.4h-15.8L222,27c14.4,0,26.6,0,41,0l-1.2,8.4H246
			L240.4,76H231L236.7,35.4z"/>
		<path fill="#FFFFFF" stroke="#FFFFFF" stroke-miterlimit="10" d="M295.3,66.8h-26.1l-5.6,9.2h-10.2l29.2-49h10.2l15.5,49h-10.2
			L295.3,66.8z M286.3,37.3l-12.2,20.9h18.5L286.3,37.3z"/>
		<path fill="#FFFFFF" stroke="#FFFFFF" stroke-miterlimit="10" d="M360.5,76h-11.2l-12.2-16.4h-9L325.8,76h-9.4l6.9-49.1
			c7.9,0,15.8,0.1,23.7,0.1c11.7,0.1,16.9,7.8,15.7,16.2c-0.9,6.7-5,13.5-14.8,15.4l12.8,16.7L360.5,76z M331.4,35.6l-2.2,15.7h14.3
			c6,0,9.1-3.9,9.6-7.8c0.5-3.9-1.5-7.8-7.4-7.8H331.4z"/>
		<path fill="#FFFFFF" stroke="#FFFFFF" stroke-miterlimit="10" d="M385.8,35.4H370l1.2-8.4c14.4,0,26.6,0,41,0l-1.2,8.4h-15.8
			L389.6,76h-9.4L385.8,35.4z"/>
		<path fill="#FFFFFF" stroke="#FFFFFF" stroke-miterlimit="10" d="M449.9,76h-37.3c2.3-16.3,4.6-32.7,6.8-49h37.3l-1.3,9h-28
			L426,47.2h27l-1.2,8.6h-27l-1.5,11.1h28L449.9,76z"/>
		<path fill="#FFFFFF" stroke="#FFFFFF" stroke-miterlimit="10" d="M503.1,76h-11.2l-12.2-16.4h-9L468.4,76H459l6.9-49.1
			c7.9,0,15.8,0.1,23.7,0.1c11.7,0.1,16.9,7.8,15.7,16.2c-0.9,6.7-5,13.5-14.8,15.4l12.8,16.7L503.1,76z M474,35.6l-2.2,15.7h14.3
			c6,0,9.1-3.9,9.6-7.8c0.5-3.9-1.5-7.8-7.4-7.8H474z"/>
		<path fill="#FFFFFF" stroke="#FFFFFF" stroke-miterlimit="10" d="M557.5,27.3l-25.4,23.4l20.5,24.7l-0.1,0.6h-11.6l-17.8-21.7
			l-3,21.7h-9.4l6.8-49h9.4L524,47.7L545.8,27h11.7L557.5,27.3z"/>
		<path fill="#FFFFFF" stroke="#FFFFFF" stroke-miterlimit="10" d="M559.1,76l6.8-49h9.3l-6.8,49H559.1z"/>
		<path fill="#FFFFFF" stroke="#FFFFFF" stroke-miterlimit="10" d="M598.8,35.4H583l1.2-8.4c14.4,0,26.6,0,41,0l-1.2,8.4h-15.8
			L602.5,76h-9.4L598.8,35.4z"/>
		<path fill="#FFFFFF" stroke="#FFFFFF" stroke-miterlimit="10" d="M211,109.8l-19.2,21.3H190l-12.9-21.4l-5,35.6h-9.4l6.8-49h10.8
			l12.6,21.1l18.5-21.1h10.7l-6.8,49h-9.4L211,109.8z"/>
		<path fill="#FFFFFF" stroke="#FFFFFF" stroke-miterlimit="10" d="M262.2,145.3h-37.3c2.3-16.3,4.6-32.7,6.8-49H269l-1.3,9h-28
			l-1.6,11.3h27l-1.2,8.6h-27l-1.5,11.1h28L262.2,145.3z"/>
		<path fill="#FFFFFF" stroke="#FFFFFF" stroke-miterlimit="10" d="M318.5,120.4c-1.5,12.4-11,24.9-28.4,24.9c-6.1,0-13.5,0-19.6,0
			l6.8-49c6.1,0,13.5,0,19.6,0C314,96.3,319.9,108.3,318.5,120.4z M281.1,136.4h10.3c11.3,0,16.9-8.1,17.8-16.1
			c0.9-7.6-2.6-15.3-13.5-15.3h-10.3L281.1,136.4z"/>
		<path fill="#FFFFFF" stroke="#FFFFFF" stroke-miterlimit="10" d="M321.7,145.3l6.8-49h9.3l-6.8,49H321.7z"/>
		<path fill="#FFFFFF" stroke="#FFFFFF" stroke-miterlimit="10" d="M380.3,136.1h-26.1l-5.6,9.2h-10.2l29.2-49h10.2l15.5,49h-10.2
			L380.3,136.1z M371.4,106.6l-12.2,20.9h18.5L371.4,106.6z"/>
	</g>
	<g>
		<path fill="#A5A5A5" d="M127.3,141.6c0.1,0,0.2,0,0.4-0.1c-1.7,0.2-3.2,0.3-4.7,0.4C124.4,141.9,125.9,141.8,127.3,141.6z"/>
		<path fill="#A5A5A5" d="M122,20c1.5,0.6,3.1,1.4,4.6,2.3C125.3,21.5,123.7,20.7,122,20z"/>
		<path fill="#A5A5A5" d="M114.6,30.3c0,0,0-0.1,0-0.1c-0.4,0.2-0.6,0.3-0.6,0.3S114.1,30.4,114.6,30.3z"/>
		<path fill="#A5A5A5" d="M93.6,128.7c0,0,16.7,7,28.4-0.6c-11.8,0.2-21.5-8.5-28.3-17.9c8.9,4.3,11.1,2.6,16.2,1.2
			c8.8-2.4,12.6,1.3,12.7,7.9c3.5-10.4,10-24.5-12.1-22.7c-5.3,0.4-13.3-2.7-17.1-10c10.4,4.2,15.5,1.2,20.6-1.8
			c10.3-6.1,16.3,4.9,16.3,4.9s-1.8-21.4-18.7-20.3c-9,0.5-8.2-5.8-16.4-11.5c12.6,2.7,19.1,2.4,25.1-1.2
			c10.2-6.1,4.9-15.6,4.9-15.6s-5.7,13.4-15.4,5.4c-6.1-5-9-7.2-21.5-6.3c13.2-6.1,6.4-14.1,21.9-15.9c-9.7-5-27.2,3.4-27.2,3.4
			s4.4-3.8,11.7-6.8c7-2.9,17.1-5.1,27.4-0.9c-5.8-2.3-13.5-3.7-21.4-3.6c-22.7,0.4-37.4,8-55.7,24.9c-5.4,5-7.8,10.1-5.8,17
			c1.2,4,0.2,7.3-1.8,10.7c-2.1,3.6-5.3,7.1-2.6,11.9c0.2,0.3-0.1,1.1-0.3,1.5c-4.2,8.3-8.3,16.6-12.7,24.9
			c-1.8,3.4-2.8,6.8,0.4,9.6c4.1,3.7,8.4,7.1,12.8,10.3c1.3,1,3.2,1.2,4.8,1.8c1.1,2.1,2.6,4.1,4.5,5.5c6.7,5,12.8,1.5,18.8-1.7
			c4.7-2.5,8.6-6.5,8.2-9.4c-0.3-2.2-2.6-4.5-2.1-6.7c0.4-1.7,5.9-4.5,6.9-4.6c1.1,1.4,3.6,7.5,1.6,11c-2.9,5.2-4.3,8.2-3.5,14.1
			c0.7,5.3,6.7,7.3,14.9,7.1c-3-2.9-1.6-8.8,0.6-11.8c5.1,3.4,10.7,5.7,16.2,7.3c-1.7-0.7-3.3-1.5-5.1-2.6
			C96.1,134.5,93.6,128.7,93.6,128.7z M51.2,52.2c1.9-4,7.8-8.4,16.2-8.8c4.1,4.9,6.9,14.6,0.7,19.9c-2.2,1.9-4.4,1.2-4.4,1.2
			s7.4-10.8,1.5-15.6c-8.8-0.3-12.4,8.4-12.4,8.4S49.6,55.6,51.2,52.2z M70.3,110c-6.7,2-8.2,8.3-3.4,13.6c-4,5.5-10,7.6-16.2,9.2
			c-1.6,0.4-3.9-0.9-5.6-1.9c-1-0.6-1.9-2-2-3.1c-0.1-0.6,1.5-1.5,2.4-2.2c1.6-1.1,3.3-2.2,5.1-3.4c5.4,2.1,7.7,1.6,9.8-2.2
			c1.5-2.6,0.6-4.1-2.1-4.7c-3.9-0.9-8.2,1-10.7,4.8c-3,4.6-9.5,5.7-13.7,2.5c-2.2-1.6-4-4.3-3.1-7.2c1.4-4.7,4.3-6,4.3-11.1
			c-2.9,0.1-4.5,0.3-7.3,3.8c0.6,0.2,1.2,1,2.2,1.4c-1.9,2.2-3.2,3.9-5,6c-2.7-1.9-3.2-4.4-0.9-8.3c4.6-7.9,8.5-16.2,12.7-24.4
			c0.3-0.7,0.9-1.8,0.6-2.2c-3-4.7,0.5-7.8,2.6-11.2c4-6.7,6.7-8.5,14.1-6.7c2.8,0.7,4.9,3.8,4.5,6.5c-0.9,5.8,0.8,5.8,6.3,7.7
			c3.8,1.3,8.9,3.1,8.9,3.1s-2.2,3-5.1,4.5c8.9,4.3,6.9,12.2,7.7,20.5C76.5,107,72.7,109.3,70.3,110z"/>
		<path fill="#A5A5A5" d="M132.9,74.4c-0.2-0.2-0.4-0.3-0.6-0.5c-0.5,0-1,0-1.5,0.1C131.5,74,132.2,74.2,132.9,74.4z"/>
		<path fill="#A5A5A5" d="M140.8,75.9c-1.4-0.7-2.9-1.3-4.5-1.6C137.9,74.6,139.3,75.1,140.8,75.9z"/>
		<path fill="#A5A5A5" d="M149.1,56.4c0,0,0-0.1,0-0.2C149.1,56.3,149.1,56.4,149.1,56.4C149.1,56.4,149.1,56.4,149.1,56.4z"/>
		<path fill="#A5A5A5" d="M139.8,54.8c-0.6-0.1-1.2-0.2-1.7-0.2C138.6,54.7,139.2,54.8,139.8,54.8z"/>
		<path fill="#FFFFFF" d="M68.6,84.4c2.9-1.5,5.1-4.5,5.1-4.5s-5.1-1.9-8.9-3.1c-5.5-1.9-7.2-1.9-6.3-7.7c0.4-2.7-1.8-5.8-4.5-6.5
			c-7.4-1.8-10.1,0-14.1,6.7c-2.1,3.4-5.6,6.6-2.6,11.2c0.3,0.4-0.2,1.5-0.6,2.2c-4.2,8.2-8.1,16.5-12.7,24.4
			c-2.3,3.9-1.8,6.4,0.9,8.3c1.8-2.1,3.2-3.8,5-6c-1.1-0.4-1.7-1.2-2.2-1.4c2.8-3.6,4.4-3.8,7.3-3.8c0.1,5.2-2.9,6.5-4.3,11.1
			c-0.9,2.9,0.9,5.6,3.1,7.2c4.3,3.2,10.7,2.1,13.7-2.5c2.5-3.8,6.8-5.7,10.7-4.8c2.7,0.7,3.6,2.2,2.1,4.7c-2.2,3.9-4.4,4.3-9.8,2.2
			c-1.9,1.2-3.5,2.3-5.1,3.4c-0.9,0.7-2.5,1.5-2.4,2.2c0.1,1.1,1,2.5,2,3.1c1.7,1,4,2.3,5.6,1.9c6.1-1.6,12.2-3.7,16.2-9.2
			c-4.8-5.3-3.3-11.6,3.4-13.6c2.4-0.7,6.3-3,6.1-5.1C75.5,96.5,77.5,88.6,68.6,84.4z M42.5,79.2c1.5-1.2,6.5-2.3,8.9-2.5
			c0.8-0.1,2.4,0,2.5,0.6c0.1,1.5-9.8,8.3-12.7,10.5C42.2,86.3,39.4,81.8,42.5,79.2z M70.2,104.4c-1.2-1.5-2.3-2.6-3.9-3
			c-3.9-0.9-7.7,0.4-9.9,0.8c-4.3,0.8-8.4,0.9-9.7-3.5c-1-3.2,0.4-5.3,0.4-5.3s3.5,7,12.4,5.6C67.3,97.7,70.7,102.5,70.2,104.4z"/>
		<path fill="#FFFFFF" d="M52.9,57.3c0,0,3.6-8.7,12.4-8.4c5.9,4.9-1.5,15.6-1.5,15.6s2.3,0.7,4.4-1.2c6.2-5.3,3.4-15-0.7-19.9
			c-8.5,0.5-14.3,4.9-16.2,8.8C49.6,55.6,52.9,57.3,52.9,57.3z"/>
		<path fill="#A3A3A3" d="M59.4,99c-9,1.4-12.4-5.6-12.4-5.6s-1.3,2.1-0.4,5.3c1.3,4.4,5.5,4.3,9.7,3.5c2.2-0.4,6-1.7,9.9-0.8
			c1.7,0.4,2.8,1.5,3.9,3C70.7,102.5,67.3,97.7,59.4,99z"/>
		<path fill="#F20A79" d="M136.4,74.2c1.6,0.3,3.1,0.9,4.5,1.6c3.5,1.9,6.3,4.9,9,8.3c5.7-19-11.6-27.9-18.3-28.1
			c1.8-1.1,4.1-1.5,6.5-1.4c0.6,0,1.2,0.1,1.7,0.2c3.5,0.6,7,2.2,9.1,4.4c0.1-0.9,0.2-1.8,0.2-2.8c0-0.1,0-0.1,0-0.2
			c0-8.1-3.6-20.1-15.1-24.5c-8.8-3.4-17.1-2-19.5-1.5c-0.4,0.1-0.7,0.2-0.7,0.2s0.2-0.1,0.6-0.3c2.3-1,10.8-4.3,19.5-2.1
			c-2.4-2.4-4.9-4.3-7.4-5.8c-1.5-0.9-3.1-1.7-4.6-2.3c0,0,0,0,0,0c-10.3-4.2-20.4-2-27.4,0.9c-7.3,3.1-11.7,6.8-11.7,6.8
			s17.6-8.4,27.2-3.4c-15.5,1.7-8.7,9.7-21.9,15.9c12.5-1,15.4,1.3,21.5,6.3c9.7,7.9,15.4-5.4,15.4-5.4s5.3,9.5-4.9,15.6
			c-6,3.6-12.5,3.9-25.1,1.2c8.2,5.8,7.4,12.1,16.4,11.5c16.9-1,18.7,20.3,18.7,20.3s-6-11-16.3-4.9c-5.1,3-10.2,6.1-20.6,1.8
			c3.8,7.3,11.8,10.5,17.1,10c22.1-1.9,15.7,12.3,12.1,22.7c-0.1-6.6-3.8-10.3-12.7-7.9c-5.2,1.4-7.3,3.1-16.2-1.2
			c6.8,9.5,16.5,18.2,28.3,17.9c-11.7,7.6-28.4,0.6-28.4,0.6s2.5,5.9,7.1,8.6c1.8,1.1,3.5,1.9,5.1,2.6c5.4,2.2,10.5,2.6,17.2,2.1
			c1.5-0.1,3-0.2,4.7-0.4c0.1,0,0.2,0,0.4,0c12.9-1.4,22.7-9.8,22-23c-5.6,3-18.6,0-9.9-12.8c12.9-19,1.3-29.1-7.2-31.4
			c-0.7-0.2-1.4-0.3-2-0.4c0.5-0.1,1-0.1,1.5-0.1C133.8,73.8,135.1,74,136.4,74.2z"/>
		<path fill="#A3A3A3" d="M53.9,77.2c0-0.6-1.7-0.7-2.5-0.6c-2.5,0.3-7.4,1.3-8.9,2.5c-3.1,2.6-0.3,7.1-1.3,8.6
			C44.1,85.5,54,78.7,53.9,77.2z"/>
	</g>
</g>
<g id="Layer_2">
</g>
</svg>
