<?xml version="1.0" encoding="utf-8"?>
<!-- Generator: Adobe Illustrator 22.0.1, SVG Export Plug-In . SVG Version: 6.00 Build 0)  -->
<svg version="1.1" baseProfile="basic" xmlns="http://www.w3.org/2000/svg" xmlns:xlink="http://www.w3.org/1999/xlink" x="0px"
	 y="0px" viewBox="0 0 639.8 166.4" xml:space="preserve">
<g id="Layer_1">
	<text id="OG_TExt" transform="matrix(1.0071 0 -0.1383 0.9904 168.8448 76.0023)" display="none"><tspan x="0" y="0" display="inline" fill="#2D2D2D" stroke="#2D2D2D" stroke-miterlimit="10" font-family="'NexaBold'" font-size="70.6795px">STARTERKIT </tspan><tspan x="0" y="70" display="inline" fill="#2D2D2D" stroke="#2D2D2D" stroke-miterlimit="10" font-family="'NexaBold'" font-size="70.6795px">MEDIA</tspan></text>
	<g id="Text">
		<path fill="#FFFFFF" stroke="#FFFFFF" stroke-miterlimit="10" d="M208.3,38.8c-1.3-2.8-5.6-5.5-11.1-5.5c-7,0-10.7,2.9-11.2,6.5
			c-0.6,4.3,4.4,5.5,10.2,6.2c10.2,1.3,19.5,3.9,17.9,15.6c-1.5,10.9-12,15.6-23.1,15.6c-10.2,0-17.6-3.1-20-12l8.4-4
			c1.5,5.4,6.9,7.8,12.9,7.8c5.9,0,11.7-2,12.5-7.4c0.6-4.6-4-6.5-10.5-7.2c-10-1.2-19-3.9-17.5-14.8c1.4-10.1,12.1-14.2,21.3-14.3
			c7.8,0,15.5,2.2,18.2,9.7L208.3,38.8z"/>
		<path fill="#FFFFFF" stroke="#FFFFFF" stroke-miterlimit="10" d="M236.7,35.4h-15.8L222,27c14.4,0,26.6,0,41,0l-1.2,8.4H246
			L240.4,76H231L236.7,35.4z"/>
		<path fill="#FFFFFF" stroke="#FFFFFF" stroke-miterlimit="10" d="M295.3,66.8h-26.1l-5.6,9.2h-10.2l29.2-49h10.2l15.5,49h-10.2
			L295.3,66.8z M286.3,37.3l-12.2,20.9h18.5L286.3,37.3z"/>
		<path fill="#FFFFFF" stroke="#FFFFFF" stroke-miterlimit="10" d="M360.5,76h-11.2l-12.2-16.4h-9L325.8,76h-9.4l6.9-49.1
			c7.9,0,15.8,0.1,23.7,0.1c11.7,0.1,16.9,7.8,15.7,16.2c-0.9,6.7-5,13.5-14.8,15.4l12.8,16.7L360.5,76z M331.4,35.6l-2.2,15.7h14.3
			c6,0,9.1-3.9,9.6-7.8c0.5-3.9-1.5-7.8-7.4-7.8H331.4z"/>
		<path fill="#FFFFFF" stroke="#FFFFFF" stroke-miterlimit="10" d="M385.8,35.4H370l1.2-8.4c14.4,0,26.6,0,41,0l-1.2,8.4h-15.8
			L389.6,76h-9.4L385.8,35.4z"/>
		<path fill="#FFFFFF" stroke="#FFFFFF" stroke-miterlimit="10" d="M449.9,76h-37.3c2.3-16.3,4.6-32.7,6.8-49h37.3l-1.3,9h-28
			L426,47.2h27l-1.2,8.6h-27l-1.5,11.1h28L449.9,76z"/>
		<path fill="#FFFFFF" stroke="#FFFFFF" stroke-miterlimit="10" d="M503.1,76h-11.2l-12.2-16.4h-9L468.4,76H459l6.9-49.1
			c7.9,0,15.8,0.1,23.7,0.1c11.7,0.1,16.9,7.8,15.7,16.2c-0.9,6.7-5,13.5-14.8,15.4l12.8,16.7L503.1,76z M474,35.6l-2.2,15.7h14.3
			c6,0,9.1-3.9,9.6-7.8c0.5-3.9-1.5-7.8-7.4-7.8H474z"/>
		<path fill="#FFFFFF" stroke="#FFFFFF" stroke-miterlimit="10" d="M557.5,27.3l-25.4,23.4l20.5,24.7l-0.1,0.6h-11.6l-17.8-21.7
			l-3,21.7h-9.4l6.8-49h9.4L524,47.7L545.8,27h11.7L557.5,27.3z"/>
		<path fill="#FFFFFF" stroke="#FFFFFF" stroke-miterlimit="10" d="M559.1,76l6.8-49h9.3l-6.8,49H559.1z"/>
		<path fill="#FFFFFF" stroke="#FFFFFF" stroke-miterlimit="10" d="M598.8,35.4H583l1.2-8.4c14.4,0,26.6,0,41,0l-1.2,8.4h-15.8
			L602.5,76h-9.4L598.8,35.4z"/>
		<path fill="#FFFFFF" stroke="#FFFFFF" stroke-miterlimit="10" d="M211,109.8l-19.2,21.3H190l-12.9-21.4l-5,35.6h-9.4l6.8-49h10.8
			l12.6,21.1l18.5-21.1h10.7l-6.8,49h-9.4L211,109.8z"/>
		<path fill="#FFFFFF" stroke="#FFFFFF" stroke-miterlimit="10" d="M262.2,145.3h-37.3c2.3-16.3,4.6-32.7,6.8-49H269l-1.3,9h-28
			l-1.6,11.3h27l-1.2,8.6h-27l-1.5,11.1h28L262.2,145.3z"/>
		<path fill="#FFFFFF" stroke="#FFFFFF" stroke-miterlimit="10" d="M318.5,120.4c-1.5,12.4-11,24.9-28.4,24.9c-6.1,0-13.5,0-19.6,0
			l6.8-49c6.1,0,13.5,0,19.6,0C314,96.3,319.9,108.3,318.5,120.4z M281.1,136.4h10.3c11.3,0,16.9-8.1,17.8-16.1
			c0.9-7.6-2.6-15.3-13.5-15.3h-10.3L281.1,136.4z"/>
		<path fill="#FFFFFF" stroke="#FFFFFF" stroke-miterlimit="10" d="M321.7,145.3l6.8-49h9.3l-6.8,49H321.7z"/>
		<path fill="#FFFFFF" stroke="#FFFFFF" stroke-miterlimit="10" d="M380.3,136.1h-26.1l-5.6,9.2h-10.2l29.2-49h10.2l15.5,49h-10.2
			L380.3,136.1z M371.4,106.6l-12.2,20.9h18.5L371.4,106.6z"/>
	</g>
	<g>
		<path fill="#A5A5A5" d="M88,128.9c0,0,15.8,7.9,28.4,0.9c-11.8-0.4-20.5-9.6-26.1-19.3c8.4,4.7,10.7,3.2,16.1,2
			c9.1-1.9,12.4,1.9,11.7,8.5c4.8-10.2,12.9-23.9-9.4-23.2c-5.3,0.2-13-3.4-15.9-10.9c9.9,4.8,15.3,2,20.8-0.7
			c11-5.5,15.7,5.7,15.7,5.7s0.8-21.3-16.2-21.2c-9,0.1-7.5-6.2-15-12.3c12.2,3.4,18.8,3.4,25.2,0.1c11-5.5,6.8-15.2,6.8-15.2
			s-7.3,13-16,4.6c-5.4-5.3-8.1-7.7-20.7-7.4c13.9-5.4,8.1-13.7,23.8-14.6c-9-5.5-27.6,2-27.6,2s4.8-3.5,12.5-6.2
			c7.3-2.6,17.7-4.2,27.5,0.5c-5.5-2.6-13.1-4.4-20.9-4.7c-22.7-0.8-38.3,6-58.6,21.9c-6,4.7-9.1,9.6-7.8,16.6
			c0.7,4-0.6,7.3-3.1,10.6c-2.5,3.5-6.1,6.8-4,11.7c0.2,0.3-0.2,1-0.5,1.5c-5.2,8-10.4,16.1-15.7,24.1c-2.2,3.3-3.6,6.6-0.8,9.6
			c3.6,3.9,7.6,7.5,11.5,11c1.2,1,3,1.4,4.6,2c0.9,2.2,2.1,4.2,3.8,5.7c6.1,5.3,12.6,2.1,19-0.7c5-2.2,9.4-6,9.3-8.9
			c0-2.2-2.1-4.6-1.3-6.8c0.6-1.7,6.4-4.1,7.4-4.2c1,1.4,2.7,7.6,0.3,11.1c-3.5,5-5.3,7.9-5.2,13.8c0.1,5.3,5.9,7.6,14,7.9
			c-2.6-3-0.5-8.9,2-11.7c4.7,3.6,9.9,6.3,15.3,8.1c-1.6-0.8-3.1-1.7-4.8-2.8C89.7,134.9,88,128.9,88,128.9z M73.6,104.4
			c-0.1,2.1-4.2,4.2-6.7,4.8c-6.9,1.7-9.2,7.9-5.1,13.4c-4.7,5.3-10.9,7-17.3,8.3c-1.7,0.3-3.8-1.1-5.3-2.2
			c-0.9-0.6-1.6-2.1-1.6-3.2c0-0.6,1.7-1.4,2.7-2c1.7-1.1,3.5-2,5.5-3.1c5.1,2.4,7.5,2,10.1-1.7c1.8-2.5,1.1-4-1.6-4.8
			c-3.8-1.1-8.3,0.6-11.2,4.2c-3.6,4.4-10.1,5.2-14,1.8c-2-1.8-3.5-4.5-2.3-7.4c2-4.6,5.1-5.7,5.6-10.9c-3-0.1-4.6,0-7.8,3.4
			c0.5,0.3,1.1,1.1,2.1,1.5c-2.1,2.1-3.7,3.7-5.7,5.7c-2.4-2-2.6-4.5,0.2-8.3c5.6-7.6,10.5-15.7,15.6-23.6c0.4-0.7,1.1-1.7,0.8-2.2
			c-2.5-4.8,1.5-7.8,4-11c4.9-6.5,7.7-8.1,14.9-6c2.7,0.8,4.5,4.1,3.7,6.7c-1.6,5.7,0.1,5.9,5.4,8c3.6,1.5,8.5,3.6,8.5,3.6
			s-2.5,2.9-5.6,4.2C76.9,88.3,73.9,96,73.6,104.4z M70.6,62.6c-2.4,1.8-4.6,0.9-4.6,0.9s8.7-10.3,3.4-15.5
			C60.6,47.3,56,55.8,56,55.8s-3-1.8-1-5.1c2.4-3.9,8.8-7.9,17.3-8C75.8,47.8,77.4,57.6,70.6,62.6z"/>
		<path fill="#A5A5A5" d="M120,143.5c0.1,0,0.2,0,0.4,0c-1.7,0.1-3.2,0.1-4.7,0.2C117.2,143.7,118.6,143.7,120,143.5z"/>
		<path fill="#A5A5A5" d="M152.2,60c0,0,0-0.1,0-0.2C152.2,59.8,152.2,59.9,152.2,60C152.2,60,152.2,60,152.2,60z"/>
		<path fill="#A5A5A5" d="M133.9,77c-0.2-0.2-0.3-0.4-0.5-0.5c-0.5,0-1,0-1.5,0C132.6,76.6,133.2,76.8,133.9,77z"/>
		<path fill="#A5A5A5" d="M129.6,22.3c1.5,0.7,2.9,1.6,4.4,2.6C132.7,23.9,131.3,23.1,129.6,22.3z"/>
		<path fill="#A5A5A5" d="M120.9,32.2c0,0,0-0.1,0-0.1c-0.4,0.2-0.6,0.2-0.6,0.2S120.5,32.3,120.9,32.2z"/>
		<path fill="#A5A5A5" d="M141.6,78.9c-1.3-0.8-2.7-1.4-4.3-1.9C138.8,77.5,140.2,78.1,141.6,78.9z"/>
		<path fill="#A5A5A5" d="M143.1,57.9c-0.6-0.1-1.1-0.2-1.7-0.3C142,57.7,142.6,57.8,143.1,57.9z"/>
		<path fill="#FFFFFF" d="M68.5,83.5c3.1-1.4,5.6-4.2,5.6-4.2s-4.9-2.1-8.5-3.6c-5.3-2.2-7-2.3-5.4-8c0.7-2.6-1-5.9-3.7-6.7
			c-7.2-2.1-10.1-0.5-14.9,6c-2.5,3.3-6.4,6.2-4,11c0.2,0.4-0.4,1.5-0.8,2.2c-5.2,7.9-10.1,16-15.6,23.6c-2.8,3.8-2.6,6.3-0.2,8.3
			c2-2,3.6-3.6,5.7-5.7c-1-0.5-1.5-1.3-2.1-1.5c3.2-3.4,4.8-3.5,7.8-3.4c-0.6,5.1-3.6,6.3-5.6,10.9c-1.2,2.8,0.3,5.6,2.3,7.4
			c3.9,3.4,10.4,2.6,14-1.8c2.9-3.6,7.5-5.3,11.2-4.2c2.7,0.8,3.3,2.3,1.6,4.8c-2.6,3.7-4.9,4.1-10.1,1.7c-2,1.1-3.8,2.1-5.5,3.1
			c-1,0.6-2.6,1.4-2.7,2c0,1.1,0.7,2.6,1.6,3.2c1.6,1.1,3.7,2.5,5.3,2.2c6.3-1.2,12.6-3,17.3-8.3c-4.1-5.5-1.8-11.7,5.1-13.4
			c2.5-0.6,6.6-2.7,6.7-4.8C73.9,96,76.9,88.3,68.5,83.5z M40.7,85.5c1.1-1.4-1.1-6,2.4-8.5c1.6-1.2,6.7-1.9,9.2-2.1
			c0.8,0,2.4,0.2,2.4,0.7C54.6,77.2,43.9,83.4,40.7,85.5z M67.6,103.6c-1-1.6-2-2.7-3.6-3.2c-3.8-1.1-7.7,0-10,0.3
			c-4.3,0.6-8.5,0.5-9.3-4c-0.6-3.2,1-5.2,1-5.2s2.6,7.1,11.7,6.2C65.5,96.8,68.4,101.7,67.6,103.6z"/>
		<path fill="#FFFFFF" d="M55,50.7c-2,3.2,1,5.1,1,5.1s4.6-8.5,13.4-7.7c5.3,5.1-3.4,15.5-3.4,15.5s2.2,0.8,4.6-0.9
			c6.8-5,5.2-14.8,1.7-19.8C63.8,42.8,57.5,46.8,55,50.7z"/>
		<path fill="#A3A3A3" d="M57.5,97.6c-9.1,1-11.7-6.2-11.7-6.2s-1.6,2-1,5.2c0.8,4.4,5,4.6,9.3,4c2.3-0.3,6.2-1.4,10-0.3
			c1.6,0.5,2.6,1.6,3.6,3.2C68.4,101.7,65.5,96.8,57.5,97.6z"/>
		<path fill="#F20A79" d="M137.3,108.6c15.2-18.2,4.8-28.9-3.4-31.6c-0.7-0.2-1.3-0.4-2-0.5c0.5,0,1,0,1.5,0c1.4,0,2.7,0.2,4,0.6
			c1.6,0.4,3,1.1,4.3,1.9c3.2,2.1,5.7,5.2,8,8.7c8-18.6-8.2-28.4-14.9-28.9c1.9-1,4.3-1.3,6.6-1c0.6,0.1,1.1,0.2,1.7,0.3
			c3.4,0.8,6.7,2.6,8.5,4.9c0.2-0.8,0.4-1.8,0.5-2.8c0-0.1,0-0.1,0-0.2c1-8.1-1.2-20.2-12.1-25.1c-8.3-3.8-16.8-2.8-19.3-2.5
			c-0.4,0.1-0.7,0.1-0.7,0.1s0.2-0.1,0.6-0.2c2.4-0.9,11.3-3.7,19.7-1.1c-2.1-2.5-4.4-4.5-6.7-6.1c-1.4-1-2.9-1.9-4.4-2.6
			c0,0,0,0,0,0c-9.8-4.7-20.2-3.1-27.5-0.5C94.4,24.5,89.6,28,89.6,28s18.6-7.5,27.6-2c-15.7,0.9-9.9,9.2-23.8,14.6
			c12.6-0.3,15.2,2.1,20.7,7.4c8.7,8.4,16-4.6,16-4.6s4.1,9.7-6.8,15.2c-6.4,3.2-12.9,3.2-25.2-0.1c7.5,6.2,6,12.4,15,12.3
			c17.1-0.1,16.2,21.2,16.2,21.2s-4.7-11.2-15.7-5.7c-5.5,2.8-11,5.5-20.8,0.7c2.9,7.5,10.6,11,15.9,10.9c22.3-0.7,14.2,13,9.4,23.2
			c0.7-6.6-2.6-10.4-11.7-8.5c-5.4,1.1-7.7,2.7-16.1-2c5.6,9.8,14.3,18.9,26.1,19.3c-12.6,6.9-28.4-0.9-28.4-0.9s1.8,6,6,8.9
			c1.6,1.1,3.2,2.1,4.8,2.8c5.1,2.5,10.2,3.1,16.9,3c1.5,0,3.1-0.1,4.7-0.2c0.1,0,0.2,0,0.4,0c13.1-0.7,23.8-8.5,24.8-21.7
			C139.6,124.5,127,120.8,137.3,108.6z"/>
		<path fill="#A3A3A3" d="M54.6,75.7c0-0.6-1.6-0.8-2.4-0.7c-2.5,0.1-7.6,0.9-9.2,2.1c-3.4,2.4-1.2,7.1-2.4,8.5
			C43.9,83.4,54.6,77.2,54.6,75.7z"/>
	</g>
</g>
<g id="Layer_2">
</g>
</svg>
