<?xml version="1.0" encoding="utf-8"?>
<!-- Generator: Adobe Illustrator 22.0.1, SVG Export Plug-In . SVG Version: 6.00 Build 0)  -->
<svg version="1.1" baseProfile="basic" xmlns="http://www.w3.org/2000/svg" xmlns:xlink="http://www.w3.org/1999/xlink" x="0px"
	 y="0px" viewBox="0 0 164.8 166.4" xml:space="preserve">
<g id="Layer_1">
	<text id="OG_TExt" transform="matrix(1.0071 0 -0.1383 0.9904 163.8448 76.0023)" display="none"><tspan x="0" y="0" display="inline" fill="#2D2D2D" stroke="#2D2D2D" stroke-miterlimit="10" font-family="'NexaBold'" font-size="70.6795px">STARTERKIT </tspan><tspan x="0" y="70" display="inline" fill="#2D2D2D" stroke="#2D2D2D" stroke-miterlimit="10" font-family="'NexaBold'" font-size="70.6795px">MEDIA</tspan></text>
	<g id="Artwork_1_2_">
		<g>
			<defs>
				<rect id="SVGID_1_" x="10.6" y="11.7" width="137" height="142.5"/>
			</defs>
			<clipPath id="SVGID_2_">
				<use xlink:href="#SVGID_1_"  overflow="visible"/>
			</clipPath>
			<g clip-path="url(#SVGID_2_)">
				<defs>
					<rect id="SVGID_3_" x="10.6" y="11.7" width="137" height="142.5"/>
				</defs>
				<clipPath id="SVGID_4_">
					<use xlink:href="#SVGID_3_"  overflow="visible"/>
				</clipPath>
				<path clip-path="url(#SVGID_4_)" fill="#A5A5A5" d="M125.7,26.2c-18.9-1.7-16.2,4.2-16.2,4.2s12.1-1.7,20.6,2.5
					c12.8,6.5,14,23.5,14,23.5s-18-4-20.1-0.9c9.9,10.3,16.2,11.9,19.4,25.1c-6.7-5-10.8-6.7-16.4-7.1c12.3,10.8,12.7,18.6,6.7,33.5
					c-7.8,19.3-3.4,18.8,7,22.3c-6.1,8.6-7.5,10.7-18.3,12.2c-10.8,1.5-25.5-1-37.7-9c-2.2,3-3.5,8.9-0.5,11.8
					c-8.1,0.1-14.1-1.8-14.9-7.1c-0.8-5.9,0.6-8.9,3.5-14.1c2-3.6-0.5-9.6-1.7-11c-1,0.1-6.5,2.9-6.9,4.6c-0.5,2.2,1.8,4.6,2.1,6.7
					c0.4,2.9-3.5,7-8.2,9.4c-6,3.1-12.2,6.7-18.8,1.7c-1.9-1.4-3.3-3.4-4.5-5.5c-1.6-0.6-3.5-0.8-4.8-1.8
					c-4.4-3.3-8.8-6.7-12.8-10.3c-3.2-2.9-2.1-6.2-0.4-9.6c4.3-8.2,8.4-16.6,12.6-24.9c0.2-0.5,0.5-1.2,0.3-1.5
					c-2.7-4.7,0.4-8.3,2.5-11.9c2-3.4,2.9-6.7,1.8-10.7c-2.1-6.9,0.4-12,5.8-17c18.3-17,33-24.5,55.6-24.9
					C108.9,16.2,121.9,20.3,125.7,26.2"/>
				<path clip-path="url(#SVGID_4_)" fill="#FFFFFF" d="M61.9,123.6c-4,5.5-10,7.6-16.1,9.2c-1.6,0.4-3.9-0.9-5.6-1.9
					c-1-0.6-1.9-2-2-3.1c-0.1-0.6,1.5-1.5,2.4-2.2c1.6-1.1,3.3-2.2,5.1-3.4c5.4,2.1,7.7,1.6,9.8-2.2c1.4-2.6,0.6-4.1-2.1-4.7
					c-3.9-0.9-8.2,1-10.7,4.8c-3,4.6-9.4,5.7-13.7,2.5c-2.2-1.6-4-4.3-3.2-7.2c1.4-4.7,4.3-6,4.2-11.1c-2.9,0.1-4.5,0.3-7.3,3.8
					c0.6,0.2,1.2,1,2.2,1.4c-1.9,2.2-3.2,3.9-5,6c-2.7-1.9-3.2-4.4-0.9-8.3c4.6-7.9,8.5-16.2,12.6-24.4c0.3-0.7,0.8-1.8,0.6-2.2
					c-3-4.7,0.5-7.8,2.6-11.2c4-6.7,6.7-8.5,14.1-6.7c2.8,0.7,4.9,3.8,4.5,6.5c-0.9,5.8,0.8,5.8,6.3,7.7c3.8,1.3,8.9,3.1,8.9,3.1
					s-2.2,3-5.1,4.5c8.9,4.3,6.9,12.2,7.7,20.5c0.2,2.1-3.6,4.4-6.1,5.1C58.6,112.1,57.1,118.3,61.9,123.6"/>
				<path clip-path="url(#SVGID_4_)" fill="#FFFFFF" d="M63.1,63.3c-2.2,1.9-4.4,1.2-4.4,1.2s7.4-10.8,1.5-15.6
					c-8.8-0.3-12.4,8.4-12.4,8.4s-3.3-1.7-1.6-5c1.9-4,7.8-8.4,16.2-8.8C66.5,48.3,69.3,58,63.1,63.3"/>
				<path clip-path="url(#SVGID_4_)" fill="#A3A3A3" d="M42,93.4c0,0,3.5,7,12.4,5.6c7.8-1.3,11.3,3.5,10.8,5.4
					c-1.2-1.5-2.3-2.6-3.9-3c-3.9-0.9-7.7,0.4-9.9,0.8c-4.3,0.8-8.4,0.9-9.7-3.5C40.7,95.5,42,93.4,42,93.4"/>
				<path clip-path="url(#SVGID_4_)" fill="#F20A79" d="M135.2,105.8c-8.7,12.8,4.3,15.8,9.9,12.8c0.6,13.2-9.1,21.6-22,23
					c-11.7,1.3-18.4,1.1-27.4-4.2c-4.6-2.7-7.1-8.6-7.1-8.6s16.7,7,28.4-0.6c-11.8,0.2-21.5-8.5-28.3-17.9
					c8.9,4.3,11.1,2.6,16.2,1.2c8.8-2.4,12.6,1.3,12.7,7.9c3.5-10.4,9.9-24.5-12.2-22.7c-5.3,0.4-13.3-2.7-17.1-10
					c10.4,4.2,15.5,1.2,20.6-1.8c10.2-6.1,16.3,4.9,16.3,4.9s-1.8-21.4-18.8-20.3c-9,0.5-8.2-5.8-16.4-11.5
					c12.6,2.7,19.1,2.4,25.1-1.2C125.3,50.5,120,41,120,41s-5.7,13.4-15.4,5.4c-6.1-5-9-7.2-21.5-6.3c13.2-6.1,6.4-14.1,21.9-15.9
					c-9.7-5-27.2,3.4-27.2,3.4s4.4-3.8,11.7-6.8c9.7-4.1,25.5-6.6,39.5,7.2c-10.2-2.6-20.1,2.4-20.1,2.4s9.8-2.7,20.1,1.3
					c13,5,16,19.7,14.9,27.5c-3.9-4.1-12.5-6.3-17.3-3.2c6.7,0.2,24,9.1,18.4,28.1c-5-6.1-10.2-11.1-19-10.2
					C134.3,75,149.1,85.2,135.2,105.8"/>
				<path clip-path="url(#SVGID_4_)" fill="#A3A3A3" d="M37.5,79.2c-3.1,2.6-0.3,7.1-1.3,8.6c3-2.2,12.8-9,12.7-10.5
					c0-0.6-1.7-0.7-2.5-0.6C43.9,76.9,39,77.9,37.5,79.2"/>
			</g>
		</g>
	</g>
</g>
<g id="Layer_2">
</g>
</svg>
