<?xml version="1.0" encoding="utf-8"?>
<!-- Generator: Adobe Illustrator 22.0.1, SVG Export Plug-In . SVG Version: 6.00 Build 0)  -->
<svg version="1.1" baseProfile="basic" xmlns="http://www.w3.org/2000/svg" xmlns:xlink="http://www.w3.org/1999/xlink" x="0px"
	 y="0px" viewBox="0 0 639.8 166.4" xml:space="preserve">
<g id="Layer_1">
	<text id="OG_TExt" transform="matrix(1.0071 0 -0.1383 0.9904 168.8448 76.0023)" display="none"><tspan x="0" y="0" display="inline" fill="#2D2D2D" stroke="#2D2D2D" stroke-miterlimit="10" font-family="'NexaBold'" font-size="70.6795px">STARTERKIT </tspan><tspan x="0" y="70" display="inline" fill="#2D2D2D" stroke="#2D2D2D" stroke-miterlimit="10" font-family="'NexaBold'" font-size="70.6795px">MEDIA</tspan></text>
	<g id="Text">
		<path fill="#F20A79" stroke="#F20A79" stroke-miterlimit="10" d="M211.3,39.8c-1.3-2.8-5.6-5.5-11.1-5.5c-7,0-10.7,2.9-11.2,6.5
			c-0.6,4.3,4.4,5.5,10.2,6.2c10.2,1.3,19.5,3.9,17.9,15.6c-1.5,10.9-12,15.6-23.1,15.6c-10.2,0-17.6-3.1-20-12l8.4-4
			c1.5,5.4,6.9,7.8,12.9,7.8c5.9,0,11.7-2,12.5-7.4c0.6-4.6-4-6.5-10.5-7.2c-10-1.2-19-3.9-17.5-14.8c1.4-10.1,12.1-14.2,21.3-14.3
			c7.8,0,15.5,2.2,18.2,9.7L211.3,39.8z"/>
		<path fill="#F20A79" stroke="#F20A79" stroke-miterlimit="10" d="M239.7,36.4h-15.8L225,28c14.4,0,26.6,0,41,0l-1.2,8.4H249
			L243.4,77H234L239.7,36.4z"/>
		<path fill="#F20A79" stroke="#F20A79" stroke-miterlimit="10" d="M298.3,67.8h-26.1l-5.6,9.2h-10.2l29.2-49h10.2l15.5,49h-10.2
			L298.3,67.8z M289.3,38.3l-12.2,20.9h18.5L289.3,38.3z"/>
		<path fill="#F20A79" stroke="#F20A79" stroke-miterlimit="10" d="M362.5,77h-11.2l-12.2-16.4h-9L327.8,77h-9.4l6.9-49.1
			c7.9,0,15.8,0.1,23.7,0.1c11.7,0.1,16.9,7.8,15.7,16.2c-0.9,6.7-5,13.5-14.8,15.4l12.8,16.7L362.5,77z M333.4,36.6l-2.2,15.7h14.3
			c6,0,9.1-3.9,9.6-7.8c0.5-3.9-1.5-7.8-7.4-7.8H333.4z"/>
		<path fill="#F20A79" stroke="#F20A79" stroke-miterlimit="10" d="M387.8,36.4H372l1.2-8.4c14.4,0,26.6,0,41,0l-1.2,8.4h-15.8
			L391.6,77h-9.4L387.8,36.4z"/>
		<path fill="#F20A79" stroke="#F20A79" stroke-miterlimit="10" d="M451.9,77h-37.3c2.3-16.3,4.6-32.7,6.8-49h37.3l-1.3,9h-28
			L428,48.2h27l-1.2,8.6h-27l-1.5,11.1h28L451.9,77z"/>
		<path fill="#F20A79" stroke="#F20A79" stroke-miterlimit="10" d="M505.1,77h-11.2l-12.2-16.4h-9L470.4,77H461l6.9-49.1
			c7.9,0,15.8,0.1,23.7,0.1c11.7,0.1,16.9,7.8,15.7,16.2c-0.9,6.7-5,13.5-14.8,15.4l12.8,16.7L505.1,77z M476,36.6l-2.2,15.7h14.3
			c6,0,9.1-3.9,9.6-7.8c0.5-3.9-1.5-7.8-7.4-7.8H476z"/>
		<path fill="#F20A79" stroke="#F20A79" stroke-miterlimit="10" d="M559.5,28.3l-25.4,23.4l20.5,24.7l-0.1,0.6h-11.6l-17.8-21.7
			l-3,21.7h-9.4l6.8-49h9.4L526,48.7L547.8,28h11.7L559.5,28.3z"/>
		<path fill="#F20A79" stroke="#F20A79" stroke-miterlimit="10" d="M561.1,77l6.8-49h9.3l-6.8,49H561.1z"/>
		<path fill="#F20A79" stroke="#F20A79" stroke-miterlimit="10" d="M600.8,36.4H585l1.2-8.4c14.4,0,26.6,0,41,0l-1.2,8.4h-15.8
			L604.5,77h-9.4L600.8,36.4z"/>
		<path fill="#F20A79" stroke="#F20A79" stroke-miterlimit="10" d="M214,108.8l-19.2,21.3H193l-12.9-21.4l-5,35.6h-9.4l6.8-49h10.8
			l12.6,21.1l18.5-21.1h10.7l-6.8,49h-9.4L214,108.8z"/>
		<path fill="#F20A79" stroke="#F20A79" stroke-miterlimit="10" d="M265.2,144.3h-37.3c2.3-16.3,4.6-32.7,6.8-49H272l-1.3,9h-28
			l-1.6,11.3h27l-1.2,8.6h-27l-1.5,11.1h28L265.2,144.3z"/>
		<path fill="#F20A79" stroke="#F20A79" stroke-miterlimit="10" d="M321.5,119.4c-1.5,12.4-11,24.9-28.4,24.9c-6.1,0-13.5,0-19.6,0
			l6.8-49c6.1,0,13.5,0,19.6,0C317,95.3,322.9,107.3,321.5,119.4z M284.1,135.4h10.3c11.3,0,16.9-8.1,17.8-16.1
			c0.9-7.6-2.6-15.3-13.5-15.3h-10.3L284.1,135.4z"/>
		<path fill="#F20A79" stroke="#F20A79" stroke-miterlimit="10" d="M324.7,144.3l6.8-49h9.3l-6.8,49H324.7z"/>
		<path fill="#F20A79" stroke="#F20A79" stroke-miterlimit="10" d="M383.3,135.1h-26.1l-5.6,9.2h-10.2l29.2-49h10.2l15.5,49h-10.2
			L383.3,135.1z M374.4,105.6l-12.2,20.9h18.5L374.4,105.6z"/>
	</g>
	<g>
		<path fill="none" d="M151.9,97.3c-11-4.6-14.8,2.5-29.9,3.1c-0.4,0-0.9,0-1.3,0.1c2.8,0.4,5.6,0.8,7.8,0.8
			C135.6,101.4,146.7,98.7,151.9,97.3z"/>
		<path fill="none" d="M119.4,84c1.6-0.1,3.3,0.1,5.1,0.2c-3.3-0.8-6.8-1.2-9-0.2C116.6,84.1,117.9,84.1,119.4,84z"/>
		<path fill="#0B324F" d="M111.7,112.5c5,0.4,10.9,0.6,17.6-0.2c0.1,0,0.2,0,0.4-0.1c-0.5-0.1-1.1-0.1-1.6-0.2
			C124.9,111.4,117.5,111.5,111.7,112.5z"/>
		<path fill="#0B324F" d="M132,72.7c-8.6-2.2-16.8-2.5-18.5,0.5c4.3-0.4,10.5,0.7,18.2,3c15,4.6,30.6-3.4,30.6-3.4
			s-6.3,0.3-13.5-0.5C143.1,73.8,137.2,74,132,72.7z"/>
		<path fill="#0B324F" d="M124.5,84.2c-1.8-0.2-3.5-0.3-5.1-0.2c-1.5,0.1-2.7,0.1-3.9,0c-1.4,0.6-2.3,1.6-2.5,3.2
			c-0.5,3.6,12.1,3.7,24.1,5.4c2.7-0.6,5.4-1.6,8.3-3.4c-5.7-0.4-11.8-1.8-16.4-3.6C127.6,85.1,126.1,84.6,124.5,84.2z"/>
		<path fill="#0B324F" d="M98.5,131.2c4.1,5.6,17.6-2.4,23.3-0.7c0.6,0.2,1.2,0.4,1.7,0.6c0.7-0.2,1.5-0.3,2.1-0.4
			c12.7-1,19.8,2.6,19.8,2.6s-4.8-9.3-19.6-9.9c-5.1-0.2-14.1,1.4-21.1,1C99.5,126.1,96.1,127.9,98.5,131.2z"/>
		<path fill="#0B324F" d="M128.5,101.3c-2.2,0-5-0.4-7.8-0.8c-4.5,0.2-9.9,0.8-8.7,4c1.4,3.5,12.5,1.1,18.8,3.1
			c5.4,1.7,8.6,2.8,13.5-2.6c-0.4,0.9-1,1.8-1.6,2.5c5.3-3.2,9-7.2,10.8-9.3c-0.6-0.3-1.1-0.5-1.6-0.7
			C146.7,98.7,135.6,101.4,128.5,101.3z"/>
		<path fill="#0B324F" d="M111.9,33.3c-7.2-0.7-17.5,5-15,8.6c2.5,3.6,16.6-7.4,24.3-2.8c0.3,0.2,0.6,0.3,0.9,0.5
			c3.4-0.9,6.7-2.1,9.6-3.8c9.3-5.5,9.7-15.6,9.7-15.6s-6.4,6-12.4,8.1c-1.9,0.7-3.9,1.1-5.8,1.4C121.1,31.9,117.7,33.8,111.9,33.3z
			"/>
		<path fill="#0B324F" d="M122.8,49.6c-12.9-0.7-17,7.6-14.8,11.8c2,3.8,12.8-7.3,21.4-4.6c1.8,0,3.7,0.2,5.8,0.7
			c11.2,2.8,18.9-7.9,18.9-7.9S147,49,139,48.4C134.7,49.5,129.3,50,122.8,49.6z"/>
		<path fill="#0B324F" d="M154.2,81.6c-3.6,2.3-7.4,3.4-11.2,3.8c1.7,0.8,3.4,1.4,5.3,1.8C150.2,85.7,152.2,83.8,154.2,81.6z"/>
		<path fill="#0B324F" d="M154.7,96.6c0,0-0.8,0.2-2.2,0.6c0.4,0.2,0.8,0.5,1.1,0.7C154.3,97.1,154.7,96.6,154.7,96.6z"/>
		<path fill="#0B324F" d="M91.5,124.9c-11,0.2-15.4,0.2-21.7-8.6c12.5,1.6,14-1.1,19.5-4.4c4.3-2.6,8.3-1.2,8.3-1.2
			s-1.5-8.4-13.7-7.2c-4.9,0.5-9.2-0.9-12.8-7.7c9.7,4,12.8-0.3,17.6-3.1c9.6-5.7,12.8,0.8,12.8,0.8s0.8-16.2-15-15.2
			c-8.4,0.5-12.1-7-12.1-7s16.8,1.4,21.2-4.1c4.3-5.5,1.9-10.2,1.9-10.2s-3.5,7.5-12.6,0.1c-5.7-4.6-8.4-6.7-20-5.8
			C77,45.3,77.1,38.1,91.6,36.5c-19.1-7.9-31.1-1.6-31.1-1.6s6.1-3.9,13.1-6.4C58,31.4,42.4,38.6,27.9,52.1c-5,4.7-7.3,9.4-5.4,15.8
			c1.1,3.7,0.2,6.8-1.7,10c-2,3.4-4.9,6.7-2.4,11.1c0.2,0.3-0.1,1-0.3,1.4c-3.9,7.7-7.8,15.5-11.8,23.2c-1.6,3.2-2.1,7.4,2.1,9.6
			c4.8-0.7,3.2,3.6,7.8,6.5c3.8,2.4,7.8,1.2,6.9,4.1c1,2.9,6.8,8.4,9.8,8.4c1.7,0,5.5-1.3,11.2-4.7c4.2-2.6,7.4-5.8,7.9-8.7
			c-0.6-2.3-2.1-4.5-1.6-6.6c0.4-1.6,5.8-4.2,7.1-5.6c1,2.2,2.7,8.3,0.8,11.6c-2.7,4.9-4,7.6-3.2,13.1c0.7,5,6.3,6.8,13.9,6.6
			c-2.8-2.7-1.5-8.2,0.5-11c7,2.9,13.2,4.1,18.9,4.2c-9.4-3.7-15.8-9.1-15.8-9.1S77.8,131.5,91.5,124.9z M33.2,62.7
			c1.8-3.7,7.2-7.3,15.1-7.7c3.8,4.6,6.4,13.6,0.6,18.6c-2,1.7-3.9,0.4-4.5-0.7c4.1-2.6,8-8.1,2.2-13.8c-8.3-0.3-10.5,2.4-11.4,8.9
			C33.5,68,31.7,65.8,33.2,62.7z M51.5,119.5c-3.8,1.9-3,5.5-1,10c-2.2,3.8-9.6,9.3-17,11.5c-3.4-1.6-7.4-4.3-8.4-7.3
			c-0.1-0.6,3.8-3.6,7.1-5.7c5,2,6.7,1.5,9.6-1.7c1.8-2.1,0.6-3.8-2-4.4c-3.6-0.9-7.4,1.1-10,4.4c-4.1,5.3-8.8,5.3-12.8,2.3
			c-2.1-1.5-3.7-4-2.9-6.7c1.3-4.4,4.9-8.3,3.3-9c-1.4-0.6-4.2,0.2-6.8,3.6c0.2,0.9,0.6,1.7,1.5,2.2c-1,2.4-1.3,2.6-3.1,4
			c-2.5-1.8-3.2-4.7-1-8.4c4.3-7.4,7.9-15.1,11.8-22.7c0.3-0.6,0.8-1.6,0.5-2.1c-2.8-4.4,0.5-7.3,2.4-10.5c3.8-6.3,6.2-7.9,13.2-6.3
			c2.6,0.6,4.6,3.6,4.2,6c-0.8,5.4,0.8,5.4,5.9,7.2c3.5,1.2,8.3,2.9,8.3,2.9s-2,2.8-4.8,4.2c8.3,4,6.4,12.6,7.5,20.4
			C57.3,116.1,55.2,117.6,51.5,119.5z"/>
		<path fill="#FFFFFF" d="M49.4,93.1c2.7-1.4,4.8-4.2,4.8-4.2s-4.8-1.7-8.3-2.9c-5.1-1.7-6.7-1.8-5.9-7.2c0.4-2.5-1.6-5.4-4.2-6
			c-6.9-1.6-9.4,0-13.2,6.3c-1.9,3.2-5.3,6.1-2.4,10.5c0.3,0.4-0.2,1.4-0.5,2.1c-3.9,7.6-7.5,15.4-11.8,22.7c-2.2,3.7-1.4,6.6,1,8.4
			c1.8-1.4,2.1-1.6,3.1-4c-0.9-0.5-1.2-1.4-1.5-2.2c2.6-3.3,5.5-4.2,6.8-3.6c1.6,0.7-2,4.7-3.3,9c-0.8,2.7,0.9,5.2,2.9,6.7
			c4,3,8.7,2.9,12.8-2.3c2.6-3.3,6.3-5.3,10-4.4c2.6,0.6,3.8,2.4,2,4.4c-2.9,3.2-4.5,3.7-9.6,1.7c-3.3,2.1-7.1,5.1-7.1,5.7
			c1,2.9,4.9,5.6,8.4,7.3c7.5-2.2,14.8-7.7,17-11.5c-2-4.6-2.8-8.1,1-10c3.7-1.9,5.8-3.3,5.4-6C55.9,105.8,57.7,97.1,49.4,93.1z
			 M23.8,96.3c0.9-1.3-1.7-5.6,1.2-8c1.4-1.2,6-2.1,8.3-2.4c0.8-0.1,2.3,0,2.3,0.6C35.8,87.9,26.6,94.2,23.8,96.3z M50.9,111.8
			c-1.1-1.4-2.1-2.4-3.7-2.8c-3.6-0.9-7.1,0.4-9.2,0.8c-4,0.8-7.8,0.8-9.1-3.3c-0.9-3,0.3-4.9,0.3-4.9s3.2,6.5,11.6,5.2
			C48.2,105.6,51.4,110.1,50.9,111.8z"/>
		<path fill="#FFFFFF" d="M35.4,67.8c0.9-6.5,3.1-9.2,11.4-8.9c5.8,5.8,1.9,11.3-2.2,13.8c0.6,1.1,2.4,2.5,4.5,0.7
			c5.8-5,3.1-14-0.6-18.6c-7.9,0.4-13.3,4-15.1,7.7C31.7,65.8,33.5,68,35.4,67.8z"/>
		<path fill="#0B324F" d="M40.8,106.8c-8.4,1.3-11.6-5.2-11.6-5.2s-1.2,2-0.3,4.9c1.2,4.1,5.1,4,9.1,3.3c2.1-0.4,5.6-1.6,9.2-0.8
			c1.5,0.4,2.6,1.4,3.7,2.8C51.4,110.1,48.2,105.6,40.8,106.8z"/>
		<path fill="#F20A79" d="M132.3,58.4c-0.9-0.7-1.9-1.2-2.8-1.5c-8.5-2.7-19.3,8.4-21.4,4.6c-2.3-4.2,1.9-12.6,14.8-11.8
			c6.5,0.4,11.9-0.1,16.2-1.3c7.9-2.2,11.9-6.9,11.6-13.4c-3.5,9.6-19.4,9.5-28.6,4.6c-0.3-0.2-0.6-0.3-0.9-0.5
			c-7.7-4.6-21.8,6.4-24.3,2.8c-2.5-3.6,7.8-9.3,15-8.6c5.8,0.5,9.2-1.3,11.3-3.7c3.1-3.7,2.9-8.8,2.9-8.8s0.2,6.2-12.2,7.2
			c-15,1.3-7.7-3.2-31.5-1.5c-2.8,0.2-5.9,1-8.8,2c-7,2.5-13.1,6.4-13.1,6.4s12.1-6.3,31.1,1.6C77.1,38.1,77,45.3,64.7,51
			c11.7-0.9,14.4,1.2,20,5.8c9.1,7.4,12.6-0.1,12.6-0.1s2.5,4.7-1.9,10.2c-4.3,5.5-21.2,4.1-21.2,4.1s3.8,7.6,12.1,7
			c15.8-1,15,15.2,15,15.2s-3.2-6.5-12.8-0.8c-4.8,2.8-7.9,7.1-17.6,3.1c3.5,6.8,7.9,8.2,12.8,7.7c12.2-1.2,13.7,7.2,13.7,7.2
			s-4-1.4-8.3,1.2c-5.6,3.3-7.1,6-19.5,4.4c6.3,8.8,10.7,8.8,21.7,8.6c-13.7,6.6-18.8,7.4-18.8,7.4s6.4,5.4,15.8,9.1
			c4.3,1.7,9.2,3,14.4,3.2c13.9,0.7,16.7-8.3,22.9-7.4c11.1,1.7,6.4,2.4,16.9,0.5c-7.3-0.4-12.5-4.2-19-6.6
			c-0.6-0.2-1.2-0.4-1.7-0.6c-5.7-1.7-19.1,6.3-23.3,0.7c-2.4-3.3,1-5.1,6.4-6.7c3.9-1.1,8.9-2.1,13.4-3.4
			c6.9-1.9,24.2,1.3,24.2,1.3s-9.7-4.9-24.5-5.4c-3.3-0.1-15,3.8-14.2-0.6c0.3-1.8,3.8-3.1,8-3.9c5.8-1,13.1-1.2,16.3-0.5
			c0.5,0.1,1,0.2,1.6,0.2c4.5,0.5,9.9-0.9,13.1-4.8c0.6-0.7,1.2-1.6,1.6-2.5c-4.9,5.4-8.1,4.3-13.5,2.6c-6.3-1.9-17.5,0.4-18.8-3.1
			c-1.2-3.1,4.2-3.7,8.7-4c0.5,0,0.9,0,1.3-0.1c15.1-0.6,18.9-7.7,29.9-3.1c0.5,0.2,1.1,0.5,1.6,0.7c0.3,0.1,0.6,0.3,0.9,0.4
			c-0.2-0.2-0.5-0.4-0.8-0.6c-0.4-0.3-0.7-0.5-1.1-0.7c-3.9-2.3-9.6-3.6-15.5-4.5c-12-1.8-24.6-1.8-24.1-5.4
			c0.2-1.7,1.2-2.7,2.5-3.2c2.3-0.9,5.7-0.6,9,0.2c1.6,0.4,3.1,0.9,4.5,1.4c4.5,1.7,10.7,3.1,16.4,3.6c5.5,0.4,10.6-0.1,13-2.2
			c-3.6,0.9-7,0.8-10.1,0.1c-1.9-0.4-3.6-1-5.3-1.8c-6.5-3-11.5-7.9-15.1-9.6c-3.4-1.6-14.9,2.5-14.7-1.6c0-0.4,0.2-0.8,0.3-1.1
			c1.7-3,10-2.7,18.5-0.5c5.2,1.3,11,1.2,16.8-0.5c7.6-2.2,15.3-7,21.5-14.5C160.7,64.1,144.4,67.9,132.3,58.4z"/>
		<path fill="#0B324F" d="M35.7,86.5c0-0.6-1.5-0.7-2.3-0.6c-2.3,0.3-6.9,1.2-8.3,2.4c-2.9,2.4-0.3,6.7-1.2,8
			C26.6,94.2,35.8,87.9,35.7,86.5z"/>
	</g>
</g>
<g id="Layer_2">
</g>
</svg>
